<svg width="969" height="376" viewBox="0 0 969 376" fill="none" xmlns="http://www.w3.org/2000/svg">
<path d="M88.23 306.642L88.7361 272.72C85.362 275.285 82.1566 284.702 80.9757 289.09C78.7812 291.622 75.7445 290.271 74.9023 287.909C81.8179 241.667 107.461 272.72 130.237 245.548C131.754 244.367 135.128 245.548 134.792 247.911C133.104 256.856 113.703 266.138 112.017 266.138C112.016 285.208 115.223 298.203 115.223 298.203C112.017 298.541 96.1577 301.748 88.23 306.642Z" fill="#5BB381"/>
<path d="M345.5 375.5C248.833 327.739 112.52 317.445 0.5 375.5C13.3215 351.198 65.9572 311.538 144.742 303.943C165.661 263.946 169.035 230.53 125.172 181.756C137.656 187.494 160.769 209.096 171.735 232.049C173.253 228.505 180.17 200.489 215.935 176.693C162.793 232.049 192.991 290.273 201.089 303.268C201.089 303.268 303.661 311.538 345.5 375.5Z" fill="#213472"/>
<ellipse cx="244.109" cy="246.055" rx="10.6284" ry="10.6323" fill="#5BB381"/>
<ellipse cx="182.867" cy="123.36" rx="17.8826" ry="17.8893" fill="#64C3EB"/>
<path d="M194.171 174.157C187.761 178.376 174.939 193.565 168.528 205.041C163.636 191.877 154.526 201.328 161.274 165.212C157.36 168.182 154.694 178.375 155.707 190.358C154.863 189.008 151.826 185.632 143.391 182.595C141.029 153.06 173.421 128.589 202.101 152.555C202.101 152.555 208.343 155.086 226.563 138.547C229.768 136.522 237.36 139.222 235.167 145.804C232.702 150.179 226.226 155.497 219.14 159.812C209.186 166.393 202.297 167.892 194.003 160.487C193.497 161.162 192.991 171.456 193.665 173.313L194.171 174.157Z" fill="#64C3EB"/>
<ellipse cx="102.066" cy="246.055" rx="10.6284" ry="10.6323" fill="#5BB381"/>
<path d="M263.34 285.714C259.629 274.406 255.411 270.356 255.411 270.356L257.435 305.291C248.325 303.772 233.986 297.865 232.298 296.683L234.998 266.98C222.176 265.124 211.548 252.973 211.548 250.61C210.199 247.066 212.392 244.534 215.765 245.547C223.695 254.829 229.262 259.892 254.23 259.724C256.086 259.724 268.739 270.018 270.088 284.87C269.076 287.233 264.352 287.401 263.34 285.714Z" fill="#5BB381"/>
<path d="M314.458 157.112C307.372 222.087 242.758 216.518 220.996 198.629C243.096 176.52 262.665 194.578 285.103 182.765C249.507 186.309 242.421 168.082 213.066 193.903C252.206 124.878 282.573 182.765 314.458 157.112Z" fill="#64C3EB"/>
<path d="M60.7354 196.606C69.3387 204.37 107.297 193.062 127.205 207.07C110.502 215.002 98.7134 222.938 85.3656 223.272C58.0355 224.62 30.8741 197.617 30.0312 172.304C49.2629 186.141 58.393 176.235 74.7372 171.966C90.8706 167.751 115.057 172.809 132.434 200.825C99.7054 182.26 87.39 201.33 60.7354 196.606Z" fill="#64C3EB"/>
<path d="M113.025 156.104C58.7024 164.542 67.9812 139.734 41.832 123.363C77.5973 93.4915 122.641 111.043 122.135 157.792C119.267 144.29 100.035 123.869 70.5117 127.751C80.634 128.932 104.59 131.97 113.025 156.104Z" fill="#5BB381"/>
<path d="M129.552 99.7335C101.209 98.7209 94.2927 70.7056 106.945 51.1287C114.705 64.9675 130.395 60.5796 137.649 77.9626C141.046 84.778 142.373 98.5521 135.625 109.522C140.517 85.5571 112.344 70.0306 112.344 70.0306C117.742 78.8064 128.202 82.5193 129.552 99.7335Z" fill="#64C3EB"/>
<path d="M179.148 79.4826C212.383 57.7117 209.515 25.1397 178.811 0.499756C178.811 11.6384 161.437 29.1901 160.255 32.2279C153.34 39.9912 150.977 72.7319 175.437 89.9461C162.28 59.9056 178.982 52.3111 185.896 26.4898C181.513 54.5051 173.077 59.3993 179.148 79.4826Z" fill="#5BB381"/>
<path d="M219.979 88.6028C232.632 89.9497 255.744 80.8363 251.695 50.799C209.52 47.4202 208.339 82.524 216.267 94.6784C210.7 73.2418 236.006 63.9596 242.585 62.9502C226.221 69.5289 219.979 81.5113 219.979 88.6028Z" fill="#64C3EB"/>
<path d="M274.637 116.267C259.791 113.568 242.077 119.644 241.571 136.352C239.209 92.1345 280.035 95.1743 299.269 113.907C279.868 118.97 278.687 143.272 248.32 131.456C249.837 124.538 256.079 118.293 274.637 116.267Z" fill="#5BB381"/>
<path d="M390.9 166H394.8C395.733 172.333 398.267 177.333 402.4 181C406.533 184.6 411.633 186.4 417.7 186.4C420.167 186.4 422.433 186.1 424.5 185.5C426.567 184.9 428.333 184.067 429.8 183C431.267 181.867 432.4 180.567 433.2 179.1C434 177.567 434.4 175.867 434.4 174C434.4 172.4 434.133 171.033 433.6 169.9C433.133 168.7 432.2 167.567 430.8 166.5C429.4 165.367 427.467 164.233 425 163.1C422.6 161.967 419.467 160.667 415.6 159.2C407.8 156.2 402.033 152.733 398.3 148.8C394.567 144.8 392.7 140.1 392.7 134.7C392.7 131.567 393.3 128.7 394.5 126.1C395.7 123.5 397.367 121.267 399.5 119.4C401.7 117.533 404.3 116.1 407.3 115.1C410.367 114.033 413.733 113.5 417.4 113.5C420.8 113.5 424 114.033 427 115.1C430 116.167 432.967 117.767 435.9 119.9L437.7 114.9H440.1L441.2 136.5H437.3C435.7 131.033 433.2 126.867 429.8 124C426.4 121.067 422.467 119.6 418 119.6C413.867 119.6 410.5 120.633 407.9 122.7C405.367 124.7 404.1 127.3 404.1 130.5C404.1 131.9 404.333 133.167 404.8 134.3C405.267 135.367 406.133 136.4 407.4 137.4C408.667 138.4 410.4 139.433 412.6 140.5C414.8 141.5 417.633 142.633 421.1 143.9C425.767 145.7 429.733 147.533 433 149.4C436.333 151.2 439.033 153.167 441.1 155.3C443.233 157.367 444.8 159.567 445.8 161.9C446.8 164.233 447.3 166.8 447.3 169.6C447.3 173 446.567 176.1 445.1 178.9C443.633 181.7 441.567 184.1 438.9 186.1C436.3 188.1 433.167 189.667 429.5 190.8C425.9 191.933 421.9 192.5 417.5 192.5C413.5 192.5 409.9 191.967 406.7 190.9C403.5 189.767 400.2 187.967 396.8 185.5L394.8 191.5H392.4L390.9 166ZM500.151 168.2H471.851C468.717 175.267 467.151 180.167 467.151 182.9C467.151 184.9 467.884 186.167 469.351 186.7C470.884 187.233 473.151 187.5 476.151 187.5V191.5H448.751V187.5C450.351 187.3 451.717 187.033 452.851 186.7C454.051 186.367 455.084 185.9 455.951 185.3C456.884 184.7 457.684 183.933 458.351 183C459.017 182 459.651 180.8 460.251 179.4L486.551 113.5H493.951L517.851 171.9C519.251 175.3 520.417 177.967 521.351 179.9C522.351 181.833 523.384 183.333 524.451 184.4C525.584 185.4 526.851 186.1 528.251 186.5C529.717 186.9 531.584 187.2 533.851 187.4V191.5H496.051V187.4C499.251 187.267 501.551 186.933 502.951 186.4C504.351 185.867 505.051 184.8 505.051 183.2C505.051 182.267 504.817 181.067 504.351 179.6C503.884 178.133 503.251 176.333 502.451 174.2L500.151 168.2ZM474.151 162.2H497.951L486.451 131.9H486.051L474.151 162.2ZM600.91 135.9C600.91 143.1 598.11 148.6 592.51 152.4C586.91 156.133 578.777 158 568.11 158H559.61V175.6C559.61 178.133 559.777 180.2 560.11 181.8C560.443 183.333 561.143 184.533 562.21 185.4C563.277 186.267 564.743 186.833 566.61 187.1C568.477 187.367 570.977 187.5 574.11 187.5V191.5H534.41V187.5C536.61 187.433 538.41 187.233 539.81 186.9C541.21 186.567 542.277 186 543.01 185.2C543.743 184.4 544.243 183.267 544.51 181.8C544.777 180.333 544.91 178.433 544.91 176.1V129.9C544.91 127.567 544.777 125.7 544.51 124.3C544.31 122.833 543.877 121.7 543.21 120.9C542.543 120.033 541.577 119.467 540.31 119.2C539.11 118.867 537.51 118.633 535.51 118.5V114.5H570.11C580.243 114.5 587.91 116.3 593.11 119.9C598.31 123.5 600.91 128.833 600.91 135.9ZM559.61 152H566.11C572.577 152 577.31 150.7 580.31 148.1C583.31 145.5 584.81 141.4 584.81 135.8C584.81 130.8 583.543 126.933 581.01 124.2C578.477 121.467 574.51 120.1 569.11 120.1H561.41C560.21 120.1 559.61 120.667 559.61 121.8V152ZM674.99 191.5H606.09V187.5C608.29 187.433 610.09 187.233 611.49 186.9C612.89 186.567 613.957 186 614.69 185.2C615.423 184.4 615.923 183.267 616.19 181.8C616.457 180.333 616.59 178.433 616.59 176.1V129.9C616.59 127.567 616.457 125.7 616.19 124.3C615.99 122.833 615.557 121.7 614.89 120.9C614.223 120.033 613.257 119.467 611.99 119.2C610.79 118.867 609.19 118.633 607.19 118.5V114.5H641.69V118.5C639.423 118.567 637.59 118.767 636.19 119.1C634.857 119.433 633.823 120.033 633.09 120.9C632.357 121.767 631.857 122.967 631.59 124.5C631.39 126.033 631.29 128.067 631.29 130.6V172.5C631.29 175.3 631.557 177.6 632.09 179.4C632.69 181.133 633.69 182.5 635.09 183.5C636.49 184.433 638.357 185.1 640.69 185.5C643.023 185.833 645.923 186 649.39 186C653.257 186 656.49 185.767 659.09 185.3C661.69 184.833 663.857 183.967 665.59 182.7C667.39 181.367 668.823 179.6 669.89 177.4C670.957 175.2 671.857 172.333 672.59 168.8H676.59L674.99 191.5ZM717.378 191.5H681.678V187.5C683.945 187.433 685.745 187.233 687.078 186.9C688.478 186.5 689.545 185.8 690.278 184.8C691.011 183.8 691.511 182.4 691.778 180.6C692.045 178.733 692.178 176.233 692.178 173.1V132.9C692.178 130.1 692.045 127.8 691.778 126C691.578 124.133 691.145 122.667 690.478 121.6C689.811 120.533 688.845 119.8 687.578 119.4C686.378 118.933 684.745 118.633 682.678 118.5V114.5H716.378V118.5C714.311 118.633 712.645 118.933 711.378 119.4C710.178 119.8 709.245 120.533 708.578 121.6C707.911 122.667 707.445 124.133 707.178 126C706.978 127.8 706.878 130.1 706.878 132.9V173.1C706.878 176.233 706.978 178.733 707.178 180.6C707.445 182.4 707.945 183.8 708.678 184.8C709.478 185.8 710.545 186.5 711.878 186.9C713.278 187.233 715.111 187.433 717.378 187.5V191.5ZM787.949 192.5L743.649 129.4H743.249V172.4C743.249 175.733 743.349 178.367 743.549 180.3C743.816 182.233 744.316 183.733 745.049 184.8C745.849 185.867 746.916 186.567 748.249 186.9C749.649 187.233 751.449 187.433 753.649 187.5V191.5H723.949V187.5C726.416 187.433 728.383 187.233 729.849 186.9C731.383 186.5 732.549 185.8 733.349 184.8C734.216 183.8 734.783 182.4 735.049 180.6C735.316 178.733 735.449 176.233 735.449 173.1V132.9C735.449 130.1 735.316 127.8 735.049 126C734.783 124.133 734.283 122.667 733.549 121.6C732.816 120.533 731.749 119.8 730.349 119.4C729.016 118.933 727.216 118.633 724.949 118.5V114.5H752.849L793.149 172.3H793.549V133.6C793.549 130.333 793.416 127.733 793.149 125.8C792.949 123.8 792.449 122.267 791.649 121.2C790.916 120.133 789.849 119.433 788.449 119.1C787.116 118.767 785.349 118.567 783.149 118.5V114.5H812.849V118.5C810.383 118.567 808.383 118.8 806.849 119.2C805.383 119.533 804.216 120.2 803.349 121.2C802.549 122.2 802.016 123.633 801.749 125.5C801.483 127.367 801.349 129.833 801.349 132.9V192.5H787.949ZM857.62 192.5C851.62 192.5 846.187 191.633 841.32 189.9C836.52 188.1 832.42 185.567 829.02 182.3C825.687 178.967 823.087 174.967 821.22 170.3C819.42 165.567 818.52 160.267 818.52 154.4C818.52 148.333 819.487 142.8 821.42 137.8C823.42 132.733 826.187 128.4 829.72 124.8C833.254 121.2 837.487 118.433 842.42 116.5C847.354 114.5 852.82 113.5 858.82 113.5C862.954 113.5 866.887 114.067 870.62 115.2C874.354 116.333 878.387 118.167 882.72 120.7L884.62 114.5H888.22V139.8H883.22C881.887 133.533 879.187 128.667 875.12 125.2C871.12 121.733 866.087 120 860.02 120C852.354 120 846.387 122.967 842.12 128.9C837.92 134.767 835.82 143 835.82 153.6C835.82 164 837.887 171.967 842.02 177.5C846.154 183.033 852.154 185.8 860.02 185.8C865.687 185.8 870.087 184.367 873.22 181.5C876.42 178.567 878.02 174.533 878.02 169.4C878.02 166.333 877.22 164.1 875.62 162.7C874.02 161.233 871.32 160.333 867.52 160V156H899.92V160C896.654 160 894.387 160.733 893.12 162.2C891.854 163.6 891.22 166.167 891.22 169.9V183.2C889.754 183.2 888.52 183.267 887.52 183.4C886.52 183.467 885.52 183.667 884.52 184C883.587 184.267 882.52 184.733 881.32 185.4C880.12 186.067 878.62 186.933 876.82 188C871.687 191 865.287 192.5 857.62 192.5ZM906.818 166H910.718C911.651 172.333 914.185 177.333 918.318 181C922.451 184.6 927.551 186.4 933.618 186.4C936.085 186.4 938.351 186.1 940.418 185.5C942.485 184.9 944.251 184.067 945.718 183C947.185 181.867 948.318 180.567 949.118 179.1C949.918 177.567 950.318 175.867 950.318 174C950.318 172.4 950.051 171.033 949.518 169.9C949.051 168.7 948.118 167.567 946.718 166.5C945.318 165.367 943.385 164.233 940.918 163.1C938.518 161.967 935.385 160.667 931.518 159.2C923.718 156.2 917.951 152.733 914.218 148.8C910.485 144.8 908.618 140.1 908.618 134.7C908.618 131.567 909.218 128.7 910.418 126.1C911.618 123.5 913.285 121.267 915.418 119.4C917.618 117.533 920.218 116.1 923.218 115.1C926.285 114.033 929.651 113.5 933.318 113.5C936.718 113.5 939.918 114.033 942.918 115.1C945.918 116.167 948.885 117.767 951.818 119.9L953.618 114.9H956.018L957.118 136.5H953.218C951.618 131.033 949.118 126.867 945.718 124C942.318 121.067 938.385 119.6 933.918 119.6C929.785 119.6 926.418 120.633 923.818 122.7C921.285 124.7 920.018 127.3 920.018 130.5C920.018 131.9 920.251 133.167 920.718 134.3C921.185 135.367 922.051 136.4 923.318 137.4C924.585 138.4 926.318 139.433 928.518 140.5C930.718 141.5 933.551 142.633 937.018 143.9C941.685 145.7 945.651 147.533 948.918 149.4C952.251 151.2 954.951 153.167 957.018 155.3C959.151 157.367 960.718 159.567 961.718 161.9C962.718 164.233 963.218 166.8 963.218 169.6C963.218 173 962.485 176.1 961.018 178.9C959.551 181.7 957.485 184.1 954.818 186.1C952.218 188.1 949.085 189.667 945.418 190.8C941.818 191.933 937.818 192.5 933.418 192.5C929.418 192.5 925.818 191.967 922.618 190.9C919.418 189.767 916.118 187.967 912.718 185.5L910.718 191.5H908.318L906.818 166Z" fill="#213472"/>
<path d="M420.987 250.756C422.865 250.756 424.375 250.697 425.519 250.58C426.663 250.463 427.543 250.228 428.159 249.876C428.805 249.495 429.259 248.952 429.523 248.248C429.787 247.544 429.993 246.591 430.139 245.388H431.767V258.28H430.139C429.963 257.107 429.729 256.168 429.435 255.464C429.142 254.76 428.673 254.232 428.027 253.88C427.382 253.499 426.502 253.264 425.387 253.176C424.302 253.059 422.835 253 420.987 253V262.064C420.987 263.003 421.105 263.795 421.339 264.44C421.603 265.085 422.029 265.613 422.615 266.024C423.202 266.405 423.979 266.684 424.947 266.86C425.915 267.007 427.103 267.08 428.511 267.08C430.183 267.08 431.591 266.963 432.735 266.728C433.909 266.493 434.877 266.083 435.639 265.496C436.402 264.909 437.018 264.132 437.487 263.164C437.957 262.167 438.353 260.92 438.675 259.424H440.435L439.731 269.5H409.899V267.74C410.867 267.711 411.659 267.623 412.275 267.476C412.891 267.329 413.361 267.08 413.683 266.728C414.006 266.376 414.226 265.877 414.343 265.232C414.461 264.587 414.519 263.751 414.519 262.724V242.396C414.519 241.369 414.461 240.548 414.343 239.932C414.255 239.287 414.065 238.788 413.771 238.436C413.478 238.055 413.053 237.805 412.495 237.688C411.967 237.541 411.263 237.439 410.383 237.38V235.62H438.191L438.499 244.244H436.607C436.431 243.012 436.153 242 435.771 241.208C435.39 240.387 434.862 239.741 434.187 239.272C433.513 238.773 432.633 238.436 431.547 238.26C430.491 238.055 429.186 237.952 427.631 237.952H422.659C421.897 237.952 421.427 238.055 421.251 238.26C421.075 238.436 420.987 238.876 420.987 239.58V250.756ZM457.097 256.96C454.633 258.075 452.77 259.116 451.509 260.084C450.277 261.023 449.661 262.005 449.661 263.032C449.661 263.883 449.896 264.557 450.365 265.056C450.834 265.555 451.421 265.804 452.125 265.804C452.829 265.804 453.489 265.687 454.105 265.452C454.721 265.188 455.249 264.851 455.689 264.44C456.129 264.029 456.466 263.545 456.701 262.988C456.965 262.401 457.097 261.785 457.097 261.14V256.96ZM457.097 254.628V252.78C457.097 251.079 456.789 249.847 456.173 249.084C455.586 248.292 454.662 247.896 453.401 247.896C452.55 247.896 451.905 248.131 451.465 248.6C451.025 249.04 450.614 249.788 450.233 250.844C449.969 251.577 449.588 252.149 449.089 252.56C448.62 252.971 447.96 253.176 447.109 253.176C446.288 253.176 445.657 252.927 445.217 252.428C444.777 251.929 444.557 251.225 444.557 250.316C444.557 248.908 445.32 247.793 446.845 246.972C448.4 246.151 450.732 245.74 453.841 245.74C457.126 245.74 459.473 246.341 460.881 247.544C462.289 248.717 462.993 250.697 462.993 253.484V263.12C462.993 265.613 463.492 266.86 464.489 266.86C465.046 266.86 465.56 266.669 466.029 266.288L466.689 267.564C466.278 268.297 465.633 268.884 464.753 269.324C463.902 269.735 462.934 269.94 461.849 269.94C460.5 269.94 459.473 269.529 458.769 268.708C458.065 267.887 457.713 266.728 457.713 265.232H457.493C456.642 266.757 455.542 267.916 454.193 268.708C452.844 269.5 451.304 269.896 449.573 269.896C447.725 269.896 446.244 269.383 445.129 268.356C444.014 267.3 443.457 265.936 443.457 264.264C443.457 262.973 444.029 261.771 445.173 260.656C446.317 259.512 448.224 258.397 450.893 257.312L457.097 254.628ZM478.579 262.68C478.579 263.824 478.623 264.733 478.711 265.408C478.828 266.053 479.048 266.552 479.371 266.904C479.693 267.256 480.163 267.491 480.779 267.608C481.395 267.696 482.216 267.74 483.243 267.74V269.5H468.547V267.74C469.427 267.681 470.131 267.593 470.659 267.476C471.187 267.359 471.583 267.124 471.847 266.772C472.111 266.42 472.272 265.921 472.331 265.276C472.419 264.601 472.463 263.707 472.463 262.592V257.224C472.463 255.405 472.419 253.953 472.331 252.868C472.243 251.783 472.052 250.947 471.759 250.36C471.465 249.773 471.04 249.392 470.483 249.216C469.955 249.011 469.251 248.908 468.371 248.908V247.368L477.171 245.74L477.875 250.8H478.051C478.843 249.245 479.884 248.013 481.175 247.104C482.465 246.195 483.829 245.74 485.267 245.74C486.381 245.74 487.291 246.019 487.995 246.576C488.699 247.133 489.051 247.837 489.051 248.688C489.051 249.627 488.772 250.419 488.215 251.064C487.687 251.709 486.953 252.032 486.015 252.032C485.575 252.032 485.179 251.944 484.827 251.768C484.475 251.592 484.152 251.401 483.859 251.196C483.595 250.961 483.316 250.756 483.023 250.58C482.759 250.375 482.48 250.272 482.187 250.272C481.629 250.272 481.101 250.639 480.603 251.372C480.104 252.105 479.693 253.088 479.371 254.32C479.136 255.2 478.945 256.197 478.799 257.312C478.652 258.397 478.579 259.483 478.579 260.568V262.68ZM500.009 262.284C500.009 263.457 500.053 264.396 500.141 265.1C500.229 265.804 500.405 266.347 500.669 266.728C500.933 267.109 501.314 267.373 501.813 267.52C502.311 267.637 502.986 267.711 503.837 267.74V269.5H489.977V267.74C490.798 267.711 491.458 267.623 491.957 267.476C492.485 267.3 492.881 267.036 493.145 266.684C493.438 266.303 493.629 265.789 493.717 265.144C493.834 264.469 493.893 263.619 493.893 262.592V244.42C493.893 242.719 493.863 241.325 493.805 240.24C493.746 239.125 493.673 238.363 493.585 237.952C493.438 237.219 493.101 236.735 492.573 236.5C492.074 236.265 491.15 236.148 489.801 236.148V234.652L500.009 232.98V262.284ZM516.808 276.408C516.485 277.053 516.074 277.655 515.576 278.212C515.106 278.769 514.564 279.239 513.948 279.62C513.361 280.031 512.745 280.353 512.1 280.588C511.454 280.823 510.809 280.94 510.164 280.94C509.196 280.94 508.418 280.705 507.832 280.236C507.245 279.767 506.952 279.136 506.952 278.344C506.952 277.611 507.201 277.039 507.7 276.628C508.228 276.217 509.064 275.968 510.208 275.88C512.818 275.675 514.505 274.853 515.268 273.416L516.456 271.128L508.668 251.856C508.316 251.005 508.008 250.331 507.744 249.832C507.509 249.333 507.245 248.952 506.952 248.688C506.658 248.395 506.321 248.204 505.94 248.116C505.558 248.028 505.089 247.969 504.532 247.94V246.18H517.864V247.94C516.72 247.94 515.913 248.057 515.444 248.292C515.004 248.497 514.784 248.893 514.784 249.48C514.784 249.715 514.813 249.993 514.872 250.316C514.96 250.609 515.062 250.917 515.18 251.24L519.668 264.088H519.844L523.628 255.508C524.009 254.599 524.332 253.851 524.596 253.264C524.86 252.648 525.05 252.135 525.168 251.724C525.314 251.284 525.417 250.932 525.476 250.668C525.534 250.404 525.564 250.14 525.564 249.876C525.564 249.113 525.344 248.6 524.904 248.336C524.493 248.072 523.642 247.94 522.352 247.94V246.18H532.956V247.94C532.369 247.94 531.87 248.028 531.46 248.204C531.049 248.351 530.624 248.673 530.184 249.172C529.773 249.671 529.304 250.419 528.776 251.416C528.277 252.384 527.646 253.675 526.884 255.288L516.808 276.408ZM574.836 269.5H544.52V267.74C545.488 267.711 546.28 267.623 546.896 267.476C547.512 267.329 547.982 267.08 548.304 266.728C548.627 266.376 548.847 265.877 548.964 265.232C549.082 264.587 549.14 263.751 549.14 262.724V242.396C549.14 241.369 549.082 240.548 548.964 239.932C548.876 239.287 548.686 238.788 548.392 238.436C548.099 238.055 547.674 237.805 547.116 237.688C546.588 237.541 545.884 237.439 545.004 237.38V235.62H560.184V237.38C559.187 237.409 558.38 237.497 557.764 237.644C557.178 237.791 556.723 238.055 556.4 238.436C556.078 238.817 555.858 239.345 555.74 240.02C555.652 240.695 555.608 241.589 555.608 242.704V261.14C555.608 262.372 555.726 263.384 555.96 264.176C556.224 264.939 556.664 265.54 557.28 265.98C557.896 266.391 558.718 266.684 559.744 266.86C560.771 267.007 562.047 267.08 563.572 267.08C565.274 267.08 566.696 266.977 567.84 266.772C568.984 266.567 569.938 266.185 570.7 265.628C571.492 265.041 572.123 264.264 572.592 263.296C573.062 262.328 573.458 261.067 573.78 259.512H575.54L574.836 269.5ZM599.955 265.408C597.286 268.429 593.957 269.94 589.967 269.94C588.149 269.94 586.491 269.661 584.995 269.104C583.529 268.517 582.267 267.711 581.211 266.684C580.155 265.628 579.334 264.381 578.747 262.944C578.161 261.507 577.867 259.908 577.867 258.148C577.867 256.329 578.175 254.672 578.791 253.176C579.407 251.651 580.273 250.345 581.387 249.26C582.531 248.145 583.866 247.28 585.391 246.664C586.946 246.048 588.647 245.74 590.495 245.74C593.605 245.74 596.025 246.576 597.755 248.248C599.486 249.92 600.351 252.267 600.351 255.288C600.351 255.757 600.278 256.051 600.131 256.168C599.985 256.256 599.574 256.3 598.899 256.3H584.731C584.614 256.564 584.555 257.048 584.555 257.752C584.555 260.627 585.171 262.9 586.403 264.572C587.665 266.244 589.366 267.08 591.507 267.08C592.739 267.08 593.957 266.801 595.159 266.244C596.391 265.687 597.579 264.895 598.723 263.868L599.955 265.408ZM591.419 253.836C592.593 253.836 593.341 253.777 593.663 253.66C594.015 253.513 594.191 253.191 594.191 252.692C594.191 251.401 593.825 250.345 593.091 249.524C592.358 248.703 591.434 248.292 590.319 248.292C589.058 248.292 587.929 248.82 586.931 249.876C585.963 250.903 585.333 252.223 585.039 253.836H591.419ZM617.07 256.96C614.606 258.075 612.743 259.116 611.482 260.084C610.25 261.023 609.634 262.005 609.634 263.032C609.634 263.883 609.868 264.557 610.338 265.056C610.807 265.555 611.394 265.804 612.098 265.804C612.802 265.804 613.462 265.687 614.078 265.452C614.694 265.188 615.222 264.851 615.662 264.44C616.102 264.029 616.439 263.545 616.674 262.988C616.938 262.401 617.07 261.785 617.07 261.14V256.96ZM617.07 254.628V252.78C617.07 251.079 616.762 249.847 616.146 249.084C615.559 248.292 614.635 247.896 613.374 247.896C612.523 247.896 611.878 248.131 611.438 248.6C610.998 249.04 610.587 249.788 610.206 250.844C609.942 251.577 609.56 252.149 609.062 252.56C608.592 252.971 607.932 253.176 607.082 253.176C606.26 253.176 605.63 252.927 605.19 252.428C604.75 251.929 604.53 251.225 604.53 250.316C604.53 248.908 605.292 247.793 606.818 246.972C608.372 246.151 610.704 245.74 613.814 245.74C617.099 245.74 619.446 246.341 620.854 247.544C622.262 248.717 622.966 250.697 622.966 253.484V263.12C622.966 265.613 623.464 266.86 624.462 266.86C625.019 266.86 625.532 266.669 626.002 266.288L626.662 267.564C626.251 268.297 625.606 268.884 624.726 269.324C623.875 269.735 622.907 269.94 621.822 269.94C620.472 269.94 619.446 269.529 618.742 268.708C618.038 267.887 617.686 266.728 617.686 265.232H617.466C616.615 266.757 615.515 267.916 614.166 268.708C612.816 269.5 611.276 269.896 609.546 269.896C607.698 269.896 606.216 269.383 605.102 268.356C603.987 267.3 603.43 265.936 603.43 264.264C603.43 262.973 604.002 261.771 605.146 260.656C606.29 259.512 608.196 258.397 610.866 257.312L617.07 254.628ZM638.551 262.68C638.551 263.824 638.595 264.733 638.683 265.408C638.801 266.053 639.021 266.552 639.343 266.904C639.666 267.256 640.135 267.491 640.751 267.608C641.367 267.696 642.189 267.74 643.215 267.74V269.5H628.519V267.74C629.399 267.681 630.103 267.593 630.631 267.476C631.159 267.359 631.555 267.124 631.819 266.772C632.083 266.42 632.245 265.921 632.303 265.276C632.391 264.601 632.435 263.707 632.435 262.592V257.224C632.435 255.405 632.391 253.953 632.303 252.868C632.215 251.783 632.025 250.947 631.731 250.36C631.438 249.773 631.013 249.392 630.455 249.216C629.927 249.011 629.223 248.908 628.343 248.908V247.368L637.143 245.74L637.847 250.8H638.023C638.815 249.245 639.857 248.013 641.147 247.104C642.438 246.195 643.802 245.74 645.239 245.74C646.354 245.74 647.263 246.019 647.967 246.576C648.671 247.133 649.023 247.837 649.023 248.688C649.023 249.627 648.745 250.419 648.187 251.064C647.659 251.709 646.926 252.032 645.987 252.032C645.547 252.032 645.151 251.944 644.799 251.768C644.447 251.592 644.125 251.401 643.831 251.196C643.567 250.961 643.289 250.756 642.995 250.58C642.731 250.375 642.453 250.272 642.159 250.272C641.602 250.272 641.074 250.639 640.575 251.372C640.077 252.105 639.666 253.088 639.343 254.32C639.109 255.2 638.918 256.197 638.771 257.312C638.625 258.397 638.551 259.483 638.551 260.568V262.68ZM660.421 262.328C660.421 263.531 660.451 264.484 660.509 265.188C660.597 265.863 660.759 266.391 660.993 266.772C661.257 267.124 661.639 267.359 662.137 267.476C662.665 267.593 663.369 267.681 664.249 267.74V269.5H650.389V267.74C651.24 267.681 651.915 267.593 652.413 267.476C652.941 267.359 653.337 267.124 653.601 266.772C653.895 266.42 654.085 265.921 654.173 265.276C654.261 264.631 654.305 263.751 654.305 262.636V257.136C654.305 255.405 654.276 254.012 654.217 252.956C654.159 251.871 654.085 251.137 653.997 250.756C653.909 250.375 653.792 250.067 653.645 249.832C653.499 249.568 653.279 249.377 652.985 249.26C652.692 249.113 652.325 249.025 651.885 248.996C651.445 248.937 650.888 248.908 650.213 248.908V247.412L658.705 245.74L659.277 249.612H659.453C660.421 248.38 661.565 247.427 662.885 246.752C664.205 246.077 665.657 245.74 667.241 245.74C669.119 245.74 670.629 246.004 671.773 246.532C672.947 247.031 673.988 247.881 674.897 249.084C675.396 249.759 675.836 250.639 676.217 251.724C676.599 252.78 676.789 254.247 676.789 256.124V262.328C676.789 263.531 676.819 264.484 676.877 265.188C676.965 265.863 677.127 266.391 677.361 266.772C677.625 267.124 678.007 267.359 678.505 267.476C679.004 267.593 679.679 267.681 680.529 267.74V269.5H666.757V267.74C667.637 267.711 668.327 267.637 668.825 267.52C669.353 267.373 669.749 267.124 670.013 266.772C670.277 266.42 670.453 265.921 670.541 265.276C670.629 264.601 670.673 263.721 670.673 262.636V256.652C670.673 255.156 670.585 253.895 670.409 252.868C670.233 251.841 669.94 251.02 669.529 250.404C669.148 249.759 668.635 249.304 667.989 249.04C667.344 248.747 666.537 248.6 665.569 248.6C664.631 248.6 663.824 248.864 663.149 249.392C662.475 249.92 661.888 250.653 661.389 251.592C661.125 252.12 660.891 252.809 660.685 253.66C660.509 254.481 660.421 255.347 660.421 256.256V262.328ZM692.39 262.284C692.39 263.457 692.434 264.396 692.522 265.1C692.61 265.804 692.786 266.347 693.05 266.728C693.314 267.109 693.695 267.373 694.194 267.52C694.693 267.637 695.367 267.711 696.218 267.74V269.5H682.358V267.74C683.179 267.711 683.839 267.623 684.338 267.476C684.866 267.3 685.262 267.036 685.526 266.684C685.819 266.303 686.01 265.789 686.098 265.144C686.215 264.469 686.274 263.619 686.274 262.592V257.18C686.274 255.479 686.245 254.085 686.186 253C686.127 251.885 686.054 251.123 685.966 250.712C685.819 249.979 685.482 249.495 684.954 249.26C684.455 249.025 683.531 248.908 682.182 248.908V247.412L692.39 245.74V262.284ZM685.922 236.412C685.922 235.444 686.245 234.637 686.89 233.992C687.565 233.317 688.371 232.98 689.31 232.98C690.278 232.98 691.085 233.317 691.73 233.992C692.405 234.637 692.742 235.444 692.742 236.412C692.742 237.351 692.405 238.157 691.73 238.832C691.085 239.477 690.278 239.8 689.31 239.8C688.371 239.8 687.565 239.477 686.89 238.832C686.245 238.157 685.922 237.351 685.922 236.412ZM708.288 262.328C708.288 263.531 708.318 264.484 708.376 265.188C708.464 265.863 708.626 266.391 708.86 266.772C709.124 267.124 709.506 267.359 710.004 267.476C710.532 267.593 711.236 267.681 712.116 267.74V269.5H698.256V267.74C699.107 267.681 699.782 267.593 700.28 267.476C700.808 267.359 701.204 267.124 701.468 266.772C701.762 266.42 701.952 265.921 702.04 265.276C702.128 264.631 702.172 263.751 702.172 262.636V257.136C702.172 255.405 702.143 254.012 702.084 252.956C702.026 251.871 701.952 251.137 701.864 250.756C701.776 250.375 701.659 250.067 701.512 249.832C701.366 249.568 701.146 249.377 700.852 249.26C700.559 249.113 700.192 249.025 699.752 248.996C699.312 248.937 698.755 248.908 698.08 248.908V247.412L706.572 245.74L707.144 249.612H707.32C708.288 248.38 709.432 247.427 710.752 246.752C712.072 246.077 713.524 245.74 715.108 245.74C716.986 245.74 718.496 246.004 719.64 246.532C720.814 247.031 721.855 247.881 722.764 249.084C723.263 249.759 723.703 250.639 724.084 251.724C724.466 252.78 724.656 254.247 724.656 256.124V262.328C724.656 263.531 724.686 264.484 724.744 265.188C724.832 265.863 724.994 266.391 725.228 266.772C725.492 267.124 725.874 267.359 726.372 267.476C726.871 267.593 727.546 267.681 728.396 267.74V269.5H714.624V267.74C715.504 267.711 716.194 267.637 716.692 267.52C717.22 267.373 717.616 267.124 717.88 266.772C718.144 266.42 718.32 265.921 718.408 265.276C718.496 264.601 718.54 263.721 718.54 262.636V256.652C718.54 255.156 718.452 253.895 718.276 252.868C718.1 251.841 717.807 251.02 717.396 250.404C717.015 249.759 716.502 249.304 715.856 249.04C715.211 248.747 714.404 248.6 713.436 248.6C712.498 248.6 711.691 248.864 711.016 249.392C710.342 249.92 709.755 250.653 709.256 251.592C708.992 252.12 708.758 252.809 708.552 253.66C708.376 254.481 708.288 255.347 708.288 256.256V262.328ZM738.981 264.748C739.773 264.807 740.463 264.865 741.049 264.924C741.665 264.983 742.237 265.056 742.765 265.144C743.323 265.203 743.865 265.276 744.393 265.364C744.951 265.423 745.537 265.496 746.153 265.584C748.441 265.907 750.231 266.772 751.521 268.18C752.841 269.559 753.501 271.275 753.501 273.328C753.501 275.821 752.475 277.713 750.421 279.004C748.368 280.295 745.347 280.94 741.357 280.94C737.691 280.94 734.86 280.397 732.865 279.312C730.9 278.256 729.917 276.745 729.917 274.78C729.917 273.255 730.313 272.096 731.105 271.304C731.897 270.541 732.895 270.16 734.097 270.16C734.86 270.16 735.593 270.307 736.297 270.6C737.031 270.923 737.647 271.377 738.145 271.964C737.383 272.111 736.752 272.448 736.253 272.976C735.784 273.533 735.549 274.179 735.549 274.912C735.549 276.085 736.063 276.98 737.089 277.596C738.145 278.241 739.685 278.564 741.709 278.564C746.109 278.564 748.309 277.171 748.309 274.384C748.309 273.387 747.972 272.521 747.297 271.788C746.652 271.084 745.713 270.659 744.481 270.512L736.781 269.456C733.525 269.016 731.897 267.564 731.897 265.1C731.897 263.897 732.279 262.915 733.041 262.152C733.833 261.389 734.948 260.861 736.385 260.568V260.392C735.711 260.128 735.095 259.761 734.537 259.292C734.009 258.823 733.54 258.28 733.129 257.664C732.719 257.048 732.396 256.388 732.161 255.684C731.956 254.951 731.853 254.203 731.853 253.44C731.853 252.355 732.073 251.343 732.513 250.404C732.983 249.436 733.613 248.615 734.405 247.94C735.227 247.265 736.18 246.737 737.265 246.356C738.38 245.945 739.583 245.74 740.873 245.74C742.135 245.74 743.367 245.931 744.569 246.312C745.772 246.693 746.799 247.221 747.649 247.896C748.324 247.485 748.911 247.148 749.409 246.884C749.908 246.591 750.363 246.371 750.773 246.224C751.213 246.048 751.609 245.931 751.961 245.872C752.313 245.784 752.665 245.74 753.017 245.74C754.132 245.74 755.027 245.989 755.701 246.488C756.405 246.987 756.757 247.647 756.757 248.468C756.757 249.084 756.567 249.597 756.185 250.008C755.804 250.389 755.305 250.58 754.689 250.58C754.249 250.58 753.897 250.492 753.633 250.316C753.369 250.111 753.105 249.891 752.841 249.656C752.607 249.392 752.357 249.172 752.093 248.996C751.829 248.791 751.477 248.688 751.037 248.688C750.421 248.688 749.835 249.084 749.277 249.876C749.571 250.375 749.776 250.917 749.893 251.504C750.011 252.061 750.069 252.721 750.069 253.484C750.069 254.599 749.893 255.625 749.541 256.564C749.189 257.503 748.632 258.339 747.869 259.072C747.136 259.776 746.183 260.377 745.009 260.876C743.836 261.375 742.413 261.712 740.741 261.888C739.333 262.035 738.351 262.225 737.793 262.46C737.265 262.695 737.001 263.047 737.001 263.516C737.001 264.22 737.661 264.631 738.981 264.748ZM741.093 259.38C742.032 259.38 742.765 258.881 743.293 257.884C743.821 256.887 744.085 255.493 744.085 253.704C744.085 251.885 743.821 250.492 743.293 249.524C742.765 248.527 742.017 248.028 741.049 248.028C740.052 248.028 739.26 248.527 738.673 249.524C738.087 250.521 737.793 251.885 737.793 253.616C737.793 255.376 738.087 256.784 738.673 257.84C739.289 258.867 740.096 259.38 741.093 259.38ZM798.128 235.62H800.284L799.404 246.752H797.644C797.028 244.053 795.825 241.927 794.036 240.372C792.276 238.817 790.134 238.04 787.612 238.04C785.881 238.04 784.341 238.392 782.992 239.096C781.642 239.771 780.498 240.753 779.56 242.044C778.65 243.305 777.946 244.86 777.448 246.708C776.978 248.527 776.744 250.58 776.744 252.868C776.744 257.415 777.668 260.92 779.516 263.384C781.393 265.819 784.15 267.036 787.788 267.036C790.721 267.036 793.141 266.244 795.048 264.66C796.984 263.076 798.362 260.715 799.184 257.576H801.12V269.5H799.052L798.436 266.024C795.209 268.635 791.293 269.94 786.688 269.94C784.018 269.94 781.598 269.544 779.428 268.752C777.257 267.96 775.409 266.845 773.884 265.408C772.358 263.941 771.17 262.167 770.32 260.084C769.498 258.001 769.088 255.684 769.088 253.132C769.088 250.463 769.528 248.028 770.408 245.828C771.288 243.628 772.52 241.736 774.104 240.152C775.717 238.568 777.624 237.351 779.824 236.5C782.053 235.62 784.517 235.18 787.216 235.18C789.005 235.18 790.677 235.429 792.232 235.928C793.786 236.427 795.473 237.233 797.292 238.348L798.128 235.62ZM827.002 265.408C824.333 268.429 821.004 269.94 817.014 269.94C815.196 269.94 813.538 269.661 812.042 269.104C810.576 268.517 809.314 267.711 808.258 266.684C807.202 265.628 806.381 264.381 805.794 262.944C805.208 261.507 804.914 259.908 804.914 258.148C804.914 256.329 805.222 254.672 805.838 253.176C806.454 251.651 807.32 250.345 808.434 249.26C809.578 248.145 810.913 247.28 812.438 246.664C813.993 246.048 815.694 245.74 817.542 245.74C820.652 245.74 823.072 246.576 824.802 248.248C826.533 249.92 827.398 252.267 827.398 255.288C827.398 255.757 827.325 256.051 827.178 256.168C827.032 256.256 826.621 256.3 825.946 256.3H811.778C811.661 256.564 811.602 257.048 811.602 257.752C811.602 260.627 812.218 262.9 813.45 264.572C814.712 266.244 816.413 267.08 818.554 267.08C819.786 267.08 821.004 266.801 822.206 266.244C823.438 265.687 824.626 264.895 825.77 263.868L827.002 265.408ZM818.466 253.836C819.64 253.836 820.388 253.777 820.71 253.66C821.062 253.513 821.238 253.191 821.238 252.692C821.238 251.401 820.872 250.345 820.138 249.524C819.405 248.703 818.481 248.292 817.366 248.292C816.105 248.292 814.976 248.82 813.978 249.876C813.01 250.903 812.38 252.223 812.086 253.836H818.466ZM840.288 262.328C840.288 263.531 840.318 264.484 840.376 265.188C840.464 265.863 840.626 266.391 840.86 266.772C841.124 267.124 841.506 267.359 842.004 267.476C842.532 267.593 843.236 267.681 844.116 267.74V269.5H830.256V267.74C831.107 267.681 831.782 267.593 832.28 267.476C832.808 267.359 833.204 267.124 833.468 266.772C833.762 266.42 833.952 265.921 834.04 265.276C834.128 264.631 834.172 263.751 834.172 262.636V257.136C834.172 255.405 834.143 254.012 834.084 252.956C834.026 251.871 833.952 251.137 833.864 250.756C833.776 250.375 833.659 250.067 833.512 249.832C833.366 249.568 833.146 249.377 832.852 249.26C832.559 249.113 832.192 249.025 831.752 248.996C831.312 248.937 830.755 248.908 830.08 248.908V247.412L838.572 245.74L839.144 249.612H839.32C840.288 248.38 841.432 247.427 842.752 246.752C844.072 246.077 845.524 245.74 847.108 245.74C848.986 245.74 850.496 246.004 851.64 246.532C852.814 247.031 853.855 247.881 854.764 249.084C855.263 249.759 855.703 250.639 856.084 251.724C856.466 252.78 856.656 254.247 856.656 256.124V262.328C856.656 263.531 856.686 264.484 856.744 265.188C856.832 265.863 856.994 266.391 857.228 266.772C857.492 267.124 857.874 267.359 858.372 267.476C858.871 267.593 859.546 267.681 860.396 267.74V269.5H846.624V267.74C847.504 267.711 848.194 267.637 848.692 267.52C849.22 267.373 849.616 267.124 849.88 266.772C850.144 266.42 850.32 265.921 850.408 265.276C850.496 264.601 850.54 263.721 850.54 262.636V256.652C850.54 255.156 850.452 253.895 850.276 252.868C850.1 251.841 849.807 251.02 849.396 250.404C849.015 249.759 848.502 249.304 847.856 249.04C847.211 248.747 846.404 248.6 845.436 248.6C844.498 248.6 843.691 248.864 843.016 249.392C842.342 249.92 841.755 250.653 841.256 251.592C840.992 252.12 840.758 252.809 840.552 253.66C840.376 254.481 840.288 255.347 840.288 256.256V262.328ZM862.049 248.6V246.62C863.809 246.121 865.276 245.373 866.449 244.376C867.652 243.349 868.547 242.176 869.133 240.856H871.377V246.18H876.437V248.6H871.377V262.108C871.377 263.927 871.568 265.217 871.949 265.98C872.36 266.743 873.035 267.124 873.973 267.124C875.117 267.124 875.983 266.596 876.569 265.54L877.493 266.816C876.672 268.899 874.736 269.94 871.685 269.94C869.661 269.94 868.077 269.471 866.933 268.532C865.819 267.593 865.261 266.273 865.261 264.572V248.6H862.049ZM889.102 262.68C889.102 263.824 889.146 264.733 889.234 265.408C889.351 266.053 889.571 266.552 889.894 266.904C890.217 267.256 890.686 267.491 891.302 267.608C891.918 267.696 892.739 267.74 893.766 267.74V269.5H879.07V267.74C879.95 267.681 880.654 267.593 881.182 267.476C881.71 267.359 882.106 267.124 882.37 266.772C882.634 266.42 882.795 265.921 882.854 265.276C882.942 264.601 882.986 263.707 882.986 262.592V257.224C882.986 255.405 882.942 253.953 882.854 252.868C882.766 251.783 882.575 250.947 882.282 250.36C881.989 249.773 881.563 249.392 881.006 249.216C880.478 249.011 879.774 248.908 878.894 248.908V247.368L887.694 245.74L888.398 250.8H888.574C889.366 249.245 890.407 248.013 891.698 247.104C892.989 246.195 894.353 245.74 895.79 245.74C896.905 245.74 897.814 246.019 898.518 246.576C899.222 247.133 899.574 247.837 899.574 248.688C899.574 249.627 899.295 250.419 898.738 251.064C898.21 251.709 897.477 252.032 896.538 252.032C896.098 252.032 895.702 251.944 895.35 251.768C894.998 251.592 894.675 251.401 894.382 251.196C894.118 250.961 893.839 250.756 893.546 250.58C893.282 250.375 893.003 250.272 892.71 250.272C892.153 250.272 891.625 250.639 891.126 251.372C890.627 252.105 890.217 253.088 889.894 254.32C889.659 255.2 889.469 256.197 889.322 257.312C889.175 258.397 889.102 259.483 889.102 260.568V262.68ZM923.166 265.408C920.497 268.429 917.168 269.94 913.178 269.94C911.36 269.94 909.702 269.661 908.206 269.104C906.74 268.517 905.478 267.711 904.422 266.684C903.366 265.628 902.545 264.381 901.958 262.944C901.372 261.507 901.078 259.908 901.078 258.148C901.078 256.329 901.386 254.672 902.002 253.176C902.618 251.651 903.484 250.345 904.598 249.26C905.742 248.145 907.077 247.28 908.602 246.664C910.157 246.048 911.858 245.74 913.706 245.74C916.816 245.74 919.236 246.576 920.966 248.248C922.697 249.92 923.562 252.267 923.562 255.288C923.562 255.757 923.489 256.051 923.342 256.168C923.196 256.256 922.785 256.3 922.11 256.3H907.942C907.825 256.564 907.766 257.048 907.766 257.752C907.766 260.627 908.382 262.9 909.614 264.572C910.876 266.244 912.577 267.08 914.718 267.08C915.95 267.08 917.168 266.801 918.37 266.244C919.602 265.687 920.79 264.895 921.934 263.868L923.166 265.408ZM914.63 253.836C915.804 253.836 916.552 253.777 916.874 253.66C917.226 253.513 917.402 253.191 917.402 252.692C917.402 251.401 917.036 250.345 916.302 249.524C915.569 248.703 914.645 248.292 913.53 248.292C912.269 248.292 911.14 248.82 910.142 249.876C909.174 250.903 908.544 252.223 908.25 253.836H914.63ZM928.885 269.5H927.521V261.492H929.369C929.867 263.604 930.586 265.144 931.525 266.112C932.463 267.08 933.681 267.564 935.177 267.564C936.262 267.564 937.098 267.344 937.685 266.904C938.301 266.435 938.609 265.804 938.609 265.012C938.609 264.191 938.242 263.399 937.509 262.636C936.775 261.844 935.587 261.008 933.945 260.128C931.715 258.925 930.117 257.737 929.149 256.564C928.181 255.361 927.697 254.012 927.697 252.516C927.697 251.548 927.873 250.653 928.225 249.832C928.606 248.981 929.105 248.248 929.721 247.632C930.366 247.016 931.129 246.547 932.009 246.224C932.889 245.872 933.842 245.696 934.869 245.696C935.778 245.696 936.673 245.828 937.553 246.092C938.462 246.356 939.254 246.723 939.929 247.192L940.721 246.136H941.865V252.78H940.149C939.474 251.108 938.77 249.905 938.037 249.172C937.333 248.439 936.467 248.072 935.441 248.072C934.619 248.072 933.959 248.292 933.461 248.732C932.991 249.172 932.757 249.759 932.757 250.492C932.757 251.313 933.109 252.091 933.813 252.824C934.546 253.557 935.749 254.364 937.421 255.244C938.594 255.889 939.606 256.52 940.457 257.136C941.307 257.752 941.997 258.383 942.525 259.028C943.053 259.644 943.434 260.304 943.669 261.008C943.933 261.683 944.065 262.416 944.065 263.208C944.065 264.235 943.874 265.159 943.493 265.98C943.111 266.801 942.569 267.505 941.865 268.092C941.161 268.679 940.31 269.133 939.313 269.456C938.345 269.779 937.259 269.94 936.057 269.94C934.795 269.94 933.622 269.779 932.537 269.456C931.451 269.104 930.557 268.605 929.853 267.96L928.885 269.5Z" fill="#213472"/>
</svg>
