<svg width="968" height="375" viewBox="0 0 968 375" fill="none" xmlns="http://www.w3.org/2000/svg">
<path d="M87.73 306.142L88.2361 272.22C84.862 274.785 81.6566 284.202 80.4757 288.59C78.2812 291.122 75.2445 289.772 74.4023 287.409C81.3179 241.167 106.961 272.22 129.737 245.048C131.254 243.867 134.628 245.048 134.292 247.411C132.604 256.356 113.203 265.638 111.517 265.638C111.516 284.709 114.723 297.704 114.723 297.704C111.517 298.041 95.6577 301.248 87.73 306.142Z" fill="#5BB381"/>
<path d="M345 375.001C248.333 327.24 112.02 316.945 0 375.001C12.8215 350.698 65.4572 311.038 144.242 303.444C165.161 263.446 168.535 230.03 124.672 181.256C137.156 186.994 160.269 208.597 171.235 231.549C172.753 228.005 179.67 199.989 215.435 176.193C162.293 231.549 192.491 289.773 200.589 302.768C200.589 302.768 303.161 311.038 345 375.001Z" fill="white"/>
<ellipse cx="243.609" cy="245.555" rx="10.6284" ry="10.6323" fill="#5BB381"/>
<ellipse cx="182.367" cy="122.86" rx="17.8826" ry="17.8893" fill="#64C3EB"/>
<path d="M193.671 173.657C187.261 177.876 174.439 193.065 168.028 204.541C163.136 191.377 154.026 200.828 160.774 164.712C156.86 167.683 154.194 177.876 155.207 189.859C154.363 188.508 151.326 185.133 142.891 182.095C140.529 152.561 172.921 128.089 201.601 152.055C201.601 152.055 207.843 154.586 226.063 138.047C229.268 136.022 236.86 138.722 234.667 145.304C232.202 149.679 225.726 154.997 218.64 159.312C208.686 165.894 201.797 167.392 193.503 159.987C192.997 160.662 192.491 170.957 193.165 172.813L193.671 173.657Z" fill="#64C3EB"/>
<ellipse cx="101.566" cy="245.555" rx="10.6284" ry="10.6323" fill="#5BB381"/>
<path d="M262.84 285.214C259.129 273.906 254.911 269.856 254.911 269.856L256.935 304.791C247.825 303.272 233.486 297.365 231.798 296.184L234.498 266.481C221.676 264.624 211.048 252.473 211.048 250.11C209.699 246.566 211.892 244.035 215.265 245.047C223.195 254.33 228.762 259.393 253.73 259.224C255.586 259.224 268.239 269.519 269.588 284.37C268.576 286.733 263.852 286.902 262.84 285.214Z" fill="#5BB381"/>
<path d="M313.958 156.612C306.872 221.588 242.258 216.018 220.496 198.129C242.596 176.02 262.165 194.079 284.603 182.265C249.007 185.809 241.921 167.582 212.566 193.403C251.706 124.378 282.073 182.265 313.958 156.612Z" fill="#64C3EB"/>
<path d="M60.2354 196.107C68.8387 203.87 106.797 192.563 126.705 206.57C110.002 214.502 98.2134 222.438 84.8656 222.772C57.5355 224.12 30.3741 197.118 29.5312 171.804C48.7629 185.642 57.893 175.736 74.2372 171.466C90.3706 167.251 114.557 172.309 131.934 200.325C99.2054 181.76 86.89 200.831 60.2354 196.107Z" fill="#64C3EB"/>
<path d="M112.525 155.604C58.2024 164.043 67.4812 139.234 41.332 122.863C77.0973 92.9917 122.141 110.544 121.635 157.292C118.767 143.791 99.5349 123.37 70.0117 127.251C80.134 128.433 104.09 131.471 112.525 155.604Z" fill="#5BB381"/>
<path d="M129.052 99.2338C100.709 98.2212 93.7927 70.2059 106.445 50.6289C114.205 64.4678 129.895 60.0799 137.149 77.4628C140.546 84.2783 141.873 98.0524 135.125 109.022C140.017 85.0573 111.844 69.5308 111.844 69.5308C117.242 78.3067 127.702 82.0195 129.052 99.2338Z" fill="#64C3EB"/>
<path d="M178.648 78.9828C211.883 57.2119 209.015 24.6399 178.311 0C178.311 11.1386 160.937 28.6903 159.755 31.7281C152.84 39.4914 150.477 72.2322 174.937 89.4464C161.78 59.4059 178.482 51.8114 185.396 25.9901C181.013 54.0054 172.577 58.8996 178.648 78.9828Z" fill="#5BB381"/>
<path d="M219.479 88.103C232.132 89.4499 255.244 80.3365 251.195 50.2993C209.02 46.9204 207.839 82.0243 215.767 94.1786C210.2 72.742 235.506 63.4598 242.085 62.4505C225.721 69.0292 219.479 81.0116 219.479 88.103Z" fill="#64C3EB"/>
<path d="M274.137 115.768C259.291 113.068 241.577 119.144 241.071 135.852C238.709 91.6348 279.535 94.6746 298.769 113.407C279.368 118.47 278.187 142.773 247.82 130.957C249.337 124.038 255.579 117.794 274.137 115.768Z" fill="#5BB381"/>
<path d="M390.4 165.5H394.3C395.233 171.834 397.767 176.834 401.9 180.5C406.033 184.1 411.133 185.9 417.2 185.9C419.667 185.9 421.933 185.6 424 185C426.067 184.4 427.833 183.567 429.3 182.5C430.767 181.367 431.9 180.067 432.7 178.6C433.5 177.067 433.9 175.367 433.9 173.5C433.9 171.9 433.633 170.534 433.1 169.4C432.633 168.2 431.7 167.067 430.3 166C428.9 164.867 426.967 163.734 424.5 162.6C422.1 161.467 418.967 160.167 415.1 158.7C407.3 155.7 401.533 152.234 397.8 148.3C394.067 144.3 392.2 139.6 392.2 134.2C392.2 131.067 392.8 128.2 394 125.6C395.2 123 396.867 120.767 399 118.9C401.2 117.034 403.8 115.6 406.8 114.6C409.867 113.534 413.233 113 416.9 113C420.3 113 423.5 113.534 426.5 114.6C429.5 115.667 432.467 117.267 435.4 119.4L437.2 114.4H439.6L440.7 136H436.8C435.2 130.534 432.7 126.367 429.3 123.5C425.9 120.567 421.967 119.1 417.5 119.1C413.367 119.1 410 120.134 407.4 122.2C404.867 124.2 403.6 126.8 403.6 130C403.6 131.4 403.833 132.667 404.3 133.8C404.767 134.867 405.633 135.9 406.9 136.9C408.167 137.9 409.9 138.934 412.1 140C414.3 141 417.133 142.134 420.6 143.4C425.267 145.2 429.233 147.034 432.5 148.9C435.833 150.7 438.533 152.667 440.6 154.8C442.733 156.867 444.3 159.067 445.3 161.4C446.3 163.734 446.8 166.3 446.8 169.1C446.8 172.5 446.067 175.6 444.6 178.4C443.133 181.2 441.067 183.6 438.4 185.6C435.8 187.6 432.667 189.167 429 190.3C425.4 191.434 421.4 192 417 192C413 192 409.4 191.467 406.2 190.4C403 189.267 399.7 187.467 396.3 185L394.3 191H391.9L390.4 165.5ZM499.651 167.7H471.351C468.217 174.767 466.651 179.667 466.651 182.4C466.651 184.4 467.384 185.667 468.851 186.2C470.384 186.734 472.651 187 475.651 187V191H448.251V187C449.851 186.8 451.217 186.534 452.351 186.2C453.551 185.867 454.584 185.4 455.451 184.8C456.384 184.2 457.184 183.434 457.851 182.5C458.517 181.5 459.151 180.3 459.751 178.9L486.051 113H493.451L517.351 171.4C518.751 174.8 519.917 177.467 520.851 179.4C521.851 181.334 522.884 182.834 523.951 183.9C525.084 184.9 526.351 185.6 527.751 186C529.217 186.4 531.084 186.7 533.351 186.9V191H495.551V186.9C498.751 186.767 501.051 186.434 502.451 185.9C503.851 185.367 504.551 184.3 504.551 182.7C504.551 181.767 504.317 180.567 503.851 179.1C503.384 177.634 502.751 175.834 501.951 173.7L499.651 167.7ZM473.651 161.7H497.451L485.951 131.4H485.551L473.651 161.7ZM600.41 135.4C600.41 142.6 597.61 148.1 592.01 151.9C586.41 155.634 578.277 157.5 567.61 157.5H559.11V175.1C559.11 177.634 559.277 179.7 559.61 181.3C559.943 182.834 560.643 184.034 561.71 184.9C562.777 185.767 564.243 186.334 566.11 186.6C567.977 186.867 570.477 187 573.61 187V191H533.91V187C536.11 186.934 537.91 186.734 539.31 186.4C540.71 186.067 541.777 185.5 542.51 184.7C543.243 183.9 543.743 182.767 544.01 181.3C544.277 179.834 544.41 177.934 544.41 175.6V129.4C544.41 127.067 544.277 125.2 544.01 123.8C543.81 122.334 543.377 121.2 542.71 120.4C542.043 119.534 541.077 118.967 539.81 118.7C538.61 118.367 537.01 118.134 535.01 118V114H569.61C579.743 114 587.41 115.8 592.61 119.4C597.81 123 600.41 128.334 600.41 135.4ZM559.11 151.5H565.61C572.077 151.5 576.81 150.2 579.81 147.6C582.81 145 584.31 140.9 584.31 135.3C584.31 130.3 583.043 126.434 580.51 123.7C577.977 120.967 574.01 119.6 568.61 119.6H560.91C559.71 119.6 559.11 120.167 559.11 121.3V151.5ZM674.49 191H605.59V187C607.79 186.934 609.59 186.734 610.99 186.4C612.39 186.067 613.457 185.5 614.19 184.7C614.923 183.9 615.423 182.767 615.69 181.3C615.957 179.834 616.09 177.934 616.09 175.6V129.4C616.09 127.067 615.957 125.2 615.69 123.8C615.49 122.334 615.057 121.2 614.39 120.4C613.723 119.534 612.757 118.967 611.49 118.7C610.29 118.367 608.69 118.134 606.69 118V114H641.19V118C638.923 118.067 637.09 118.267 635.69 118.6C634.357 118.934 633.323 119.534 632.59 120.4C631.857 121.267 631.357 122.467 631.09 124C630.89 125.534 630.79 127.567 630.79 130.1V172C630.79 174.8 631.057 177.1 631.59 178.9C632.19 180.634 633.19 182 634.59 183C635.99 183.934 637.857 184.6 640.19 185C642.523 185.334 645.423 185.5 648.89 185.5C652.757 185.5 655.99 185.267 658.59 184.8C661.19 184.334 663.357 183.467 665.09 182.2C666.89 180.867 668.323 179.1 669.39 176.9C670.457 174.7 671.357 171.834 672.09 168.3H676.09L674.49 191ZM716.878 191H681.178V187C683.445 186.934 685.245 186.734 686.578 186.4C687.978 186 689.045 185.3 689.778 184.3C690.511 183.3 691.011 181.9 691.278 180.1C691.545 178.234 691.678 175.734 691.678 172.6V132.4C691.678 129.6 691.545 127.3 691.278 125.5C691.078 123.634 690.645 122.167 689.978 121.1C689.311 120.034 688.345 119.3 687.078 118.9C685.878 118.434 684.245 118.134 682.178 118V114H715.878V118C713.811 118.134 712.145 118.434 710.878 118.9C709.678 119.3 708.745 120.034 708.078 121.1C707.411 122.167 706.945 123.634 706.678 125.5C706.478 127.3 706.378 129.6 706.378 132.4V172.6C706.378 175.734 706.478 178.234 706.678 180.1C706.945 181.9 707.445 183.3 708.178 184.3C708.978 185.3 710.045 186 711.378 186.4C712.778 186.734 714.611 186.934 716.878 187V191ZM787.449 192L743.149 128.9H742.749V171.9C742.749 175.234 742.849 177.867 743.049 179.8C743.316 181.734 743.816 183.234 744.549 184.3C745.349 185.367 746.416 186.067 747.749 186.4C749.149 186.734 750.949 186.934 753.149 187V191H723.449V187C725.916 186.934 727.883 186.734 729.349 186.4C730.883 186 732.049 185.3 732.849 184.3C733.716 183.3 734.283 181.9 734.549 180.1C734.816 178.234 734.949 175.734 734.949 172.6V132.4C734.949 129.6 734.816 127.3 734.549 125.5C734.283 123.634 733.783 122.167 733.049 121.1C732.316 120.034 731.249 119.3 729.849 118.9C728.516 118.434 726.716 118.134 724.449 118V114H752.349L792.649 171.8H793.049V133.1C793.049 129.834 792.916 127.234 792.649 125.3C792.449 123.3 791.949 121.767 791.149 120.7C790.416 119.634 789.349 118.934 787.949 118.6C786.616 118.267 784.849 118.067 782.649 118V114H812.349V118C809.883 118.067 807.883 118.3 806.349 118.7C804.883 119.034 803.716 119.7 802.849 120.7C802.049 121.7 801.516 123.134 801.249 125C800.983 126.867 800.849 129.334 800.849 132.4V192H787.449ZM857.12 192C851.12 192 845.687 191.134 840.82 189.4C836.02 187.6 831.92 185.067 828.52 181.8C825.187 178.467 822.587 174.467 820.72 169.8C818.92 165.067 818.02 159.767 818.02 153.9C818.02 147.834 818.987 142.3 820.92 137.3C822.92 132.234 825.687 127.9 829.22 124.3C832.754 120.7 836.987 117.934 841.92 116C846.854 114 852.32 113 858.32 113C862.454 113 866.387 113.567 870.12 114.7C873.854 115.834 877.887 117.667 882.22 120.2L884.12 114H887.72V139.3H882.72C881.387 133.034 878.687 128.167 874.62 124.7C870.62 121.234 865.587 119.5 859.52 119.5C851.854 119.5 845.887 122.467 841.62 128.4C837.42 134.267 835.32 142.5 835.32 153.1C835.32 163.5 837.387 171.467 841.52 177C845.654 182.534 851.654 185.3 859.52 185.3C865.187 185.3 869.587 183.867 872.72 181C875.92 178.067 877.52 174.034 877.52 168.9C877.52 165.834 876.72 163.6 875.12 162.2C873.52 160.734 870.82 159.834 867.02 159.5V155.5H899.42V159.5C896.154 159.5 893.887 160.234 892.62 161.7C891.354 163.1 890.72 165.667 890.72 169.4V182.7C889.254 182.7 888.02 182.767 887.02 182.9C886.02 182.967 885.02 183.167 884.02 183.5C883.087 183.767 882.02 184.234 880.82 184.9C879.62 185.567 878.12 186.434 876.32 187.5C871.187 190.5 864.787 192 857.12 192ZM906.318 165.5H910.218C911.151 171.834 913.685 176.834 917.818 180.5C921.951 184.1 927.051 185.9 933.118 185.9C935.585 185.9 937.851 185.6 939.918 185C941.985 184.4 943.751 183.567 945.218 182.5C946.685 181.367 947.818 180.067 948.618 178.6C949.418 177.067 949.818 175.367 949.818 173.5C949.818 171.9 949.551 170.534 949.018 169.4C948.551 168.2 947.618 167.067 946.218 166C944.818 164.867 942.885 163.734 940.418 162.6C938.018 161.467 934.885 160.167 931.018 158.7C923.218 155.7 917.451 152.234 913.718 148.3C909.985 144.3 908.118 139.6 908.118 134.2C908.118 131.067 908.718 128.2 909.918 125.6C911.118 123 912.785 120.767 914.918 118.9C917.118 117.034 919.718 115.6 922.718 114.6C925.785 113.534 929.151 113 932.818 113C936.218 113 939.418 113.534 942.418 114.6C945.418 115.667 948.385 117.267 951.318 119.4L953.118 114.4H955.518L956.618 136H952.718C951.118 130.534 948.618 126.367 945.218 123.5C941.818 120.567 937.885 119.1 933.418 119.1C929.285 119.1 925.918 120.134 923.318 122.2C920.785 124.2 919.518 126.8 919.518 130C919.518 131.4 919.751 132.667 920.218 133.8C920.685 134.867 921.551 135.9 922.818 136.9C924.085 137.9 925.818 138.934 928.018 140C930.218 141 933.051 142.134 936.518 143.4C941.185 145.2 945.151 147.034 948.418 148.9C951.751 150.7 954.451 152.667 956.518 154.8C958.651 156.867 960.218 159.067 961.218 161.4C962.218 163.734 962.718 166.3 962.718 169.1C962.718 172.5 961.985 175.6 960.518 178.4C959.051 181.2 956.985 183.6 954.318 185.6C951.718 187.6 948.585 189.167 944.918 190.3C941.318 191.434 937.318 192 932.918 192C928.918 192 925.318 191.467 922.118 190.4C918.918 189.267 915.618 187.467 912.218 185L910.218 191H907.818L906.318 165.5Z" fill="white"/>
<path d="M397.987 250.256C399.865 250.256 401.375 250.198 402.519 250.08C403.663 249.963 404.543 249.728 405.159 249.376C405.805 248.995 406.259 248.452 406.523 247.748C406.787 247.044 406.993 246.091 407.139 244.888H408.767V257.78H407.139C406.963 256.607 406.729 255.668 406.435 254.964C406.142 254.26 405.673 253.732 405.027 253.38C404.382 252.999 403.502 252.764 402.387 252.676C401.302 252.559 399.835 252.5 397.987 252.5V261.564C397.987 262.503 398.105 263.295 398.339 263.94C398.603 264.586 399.029 265.114 399.615 265.524C400.202 265.906 400.979 266.184 401.947 266.36C402.915 266.507 404.103 266.58 405.511 266.58C407.183 266.58 408.591 266.463 409.735 266.228C410.909 265.994 411.877 265.583 412.639 264.996C413.402 264.41 414.018 263.632 414.487 262.664C414.957 261.667 415.353 260.42 415.675 258.924H417.435L416.731 269H386.899V267.24C387.867 267.211 388.659 267.123 389.275 266.976C389.891 266.83 390.361 266.58 390.683 266.228C391.006 265.876 391.226 265.378 391.343 264.732C391.461 264.087 391.519 263.251 391.519 262.224V241.896C391.519 240.87 391.461 240.048 391.343 239.432C391.255 238.787 391.065 238.288 390.771 237.936C390.478 237.555 390.053 237.306 389.495 237.188C388.967 237.042 388.263 236.939 387.383 236.88V235.12H415.191L415.499 243.744H413.607C413.431 242.512 413.153 241.5 412.771 240.708C412.39 239.887 411.862 239.242 411.187 238.772C410.513 238.274 409.633 237.936 408.547 237.76C407.491 237.555 406.186 237.452 404.631 237.452H399.659C398.897 237.452 398.427 237.555 398.251 237.76C398.075 237.936 397.987 238.376 397.987 239.08V250.256ZM434.097 256.46C431.633 257.575 429.77 258.616 428.509 259.584C427.277 260.523 426.661 261.506 426.661 262.532C426.661 263.383 426.896 264.058 427.365 264.556C427.834 265.055 428.421 265.304 429.125 265.304C429.829 265.304 430.489 265.187 431.105 264.952C431.721 264.688 432.249 264.351 432.689 263.94C433.129 263.53 433.466 263.046 433.701 262.488C433.965 261.902 434.097 261.286 434.097 260.64V256.46ZM434.097 254.128V252.28C434.097 250.579 433.789 249.347 433.173 248.584C432.586 247.792 431.662 247.396 430.401 247.396C429.55 247.396 428.905 247.631 428.465 248.1C428.025 248.54 427.614 249.288 427.233 250.344C426.969 251.078 426.588 251.65 426.089 252.06C425.62 252.471 424.96 252.676 424.109 252.676C423.288 252.676 422.657 252.427 422.217 251.928C421.777 251.43 421.557 250.726 421.557 249.816C421.557 248.408 422.32 247.294 423.845 246.472C425.4 245.651 427.732 245.24 430.841 245.24C434.126 245.24 436.473 245.842 437.881 247.044C439.289 248.218 439.993 250.198 439.993 252.984V262.62C439.993 265.114 440.492 266.36 441.489 266.36C442.046 266.36 442.56 266.17 443.029 265.788L443.689 267.064C443.278 267.798 442.633 268.384 441.753 268.824C440.902 269.235 439.934 269.44 438.849 269.44C437.5 269.44 436.473 269.03 435.769 268.208C435.065 267.387 434.713 266.228 434.713 264.732H434.493C433.642 266.258 432.542 267.416 431.193 268.208C429.844 269 428.304 269.396 426.573 269.396C424.725 269.396 423.244 268.883 422.129 267.856C421.014 266.8 420.457 265.436 420.457 263.764C420.457 262.474 421.029 261.271 422.173 260.156C423.317 259.012 425.224 257.898 427.893 256.812L434.097 254.128ZM455.579 262.18C455.579 263.324 455.623 264.234 455.711 264.908C455.828 265.554 456.048 266.052 456.371 266.404C456.693 266.756 457.163 266.991 457.779 267.108C458.395 267.196 459.216 267.24 460.243 267.24V269H445.547V267.24C446.427 267.182 447.131 267.094 447.659 266.976C448.187 266.859 448.583 266.624 448.847 266.272C449.111 265.92 449.272 265.422 449.331 264.776C449.419 264.102 449.463 263.207 449.463 262.092V256.724C449.463 254.906 449.419 253.454 449.331 252.368C449.243 251.283 449.052 250.447 448.759 249.86C448.465 249.274 448.04 248.892 447.483 248.716C446.955 248.511 446.251 248.408 445.371 248.408V246.868L454.171 245.24L454.875 250.3H455.051C455.843 248.746 456.884 247.514 458.175 246.604C459.465 245.695 460.829 245.24 462.267 245.24C463.381 245.24 464.291 245.519 464.995 246.076C465.699 246.634 466.051 247.338 466.051 248.188C466.051 249.127 465.772 249.919 465.215 250.564C464.687 251.21 463.953 251.532 463.015 251.532C462.575 251.532 462.179 251.444 461.827 251.268C461.475 251.092 461.152 250.902 460.859 250.696C460.595 250.462 460.316 250.256 460.023 250.08C459.759 249.875 459.48 249.772 459.187 249.772C458.629 249.772 458.101 250.139 457.603 250.872C457.104 251.606 456.693 252.588 456.371 253.82C456.136 254.7 455.945 255.698 455.799 256.812C455.652 257.898 455.579 258.983 455.579 260.068V262.18ZM477.009 261.784C477.009 262.958 477.053 263.896 477.141 264.6C477.229 265.304 477.405 265.847 477.669 266.228C477.933 266.61 478.314 266.874 478.813 267.02C479.311 267.138 479.986 267.211 480.837 267.24V269H466.977V267.24C467.798 267.211 468.458 267.123 468.957 266.976C469.485 266.8 469.881 266.536 470.145 266.184C470.438 265.803 470.629 265.29 470.717 264.644C470.834 263.97 470.893 263.119 470.893 262.092V243.92C470.893 242.219 470.863 240.826 470.805 239.74C470.746 238.626 470.673 237.863 470.585 237.452C470.438 236.719 470.101 236.235 469.573 236C469.074 235.766 468.15 235.648 466.801 235.648V234.152L477.009 232.48V261.784ZM493.808 275.908C493.485 276.554 493.074 277.155 492.576 277.712C492.106 278.27 491.564 278.739 490.948 279.12C490.361 279.531 489.745 279.854 489.1 280.088C488.454 280.323 487.809 280.44 487.164 280.44C486.196 280.44 485.418 280.206 484.832 279.736C484.245 279.267 483.952 278.636 483.952 277.844C483.952 277.111 484.201 276.539 484.7 276.128C485.228 275.718 486.064 275.468 487.208 275.38C489.818 275.175 491.505 274.354 492.268 272.916L493.456 270.628L485.668 251.356C485.316 250.506 485.008 249.831 484.744 249.332C484.509 248.834 484.245 248.452 483.952 248.188C483.658 247.895 483.321 247.704 482.94 247.616C482.558 247.528 482.089 247.47 481.532 247.44V245.68H494.864V247.44C493.72 247.44 492.913 247.558 492.444 247.792C492.004 247.998 491.784 248.394 491.784 248.98C491.784 249.215 491.813 249.494 491.872 249.816C491.96 250.11 492.062 250.418 492.18 250.74L496.668 263.588H496.844L500.628 255.008C501.009 254.099 501.332 253.351 501.596 252.764C501.86 252.148 502.05 251.635 502.168 251.224C502.314 250.784 502.417 250.432 502.476 250.168C502.534 249.904 502.564 249.64 502.564 249.376C502.564 248.614 502.344 248.1 501.904 247.836C501.493 247.572 500.642 247.44 499.352 247.44V245.68H509.956V247.44C509.369 247.44 508.87 247.528 508.46 247.704C508.049 247.851 507.624 248.174 507.184 248.672C506.773 249.171 506.304 249.919 505.776 250.916C505.277 251.884 504.646 253.175 503.884 254.788L493.808 275.908ZM551.836 269H521.52V267.24C522.488 267.211 523.28 267.123 523.896 266.976C524.512 266.83 524.982 266.58 525.304 266.228C525.627 265.876 525.847 265.378 525.964 264.732C526.082 264.087 526.14 263.251 526.14 262.224V241.896C526.14 240.87 526.082 240.048 525.964 239.432C525.876 238.787 525.686 238.288 525.392 237.936C525.099 237.555 524.674 237.306 524.116 237.188C523.588 237.042 522.884 236.939 522.004 236.88V235.12H537.184V236.88C536.187 236.91 535.38 236.998 534.764 237.144C534.178 237.291 533.723 237.555 533.4 237.936C533.078 238.318 532.858 238.846 532.74 239.52C532.652 240.195 532.608 241.09 532.608 242.204V260.64C532.608 261.872 532.726 262.884 532.96 263.676C533.224 264.439 533.664 265.04 534.28 265.48C534.896 265.891 535.718 266.184 536.744 266.36C537.771 266.507 539.047 266.58 540.572 266.58C542.274 266.58 543.696 266.478 544.84 266.272C545.984 266.067 546.938 265.686 547.7 265.128C548.492 264.542 549.123 263.764 549.592 262.796C550.062 261.828 550.458 260.567 550.78 259.012H552.54L551.836 269ZM576.955 264.908C574.286 267.93 570.957 269.44 566.967 269.44C565.149 269.44 563.491 269.162 561.995 268.604C560.529 268.018 559.267 267.211 558.211 266.184C557.155 265.128 556.334 263.882 555.747 262.444C555.161 261.007 554.867 259.408 554.867 257.648C554.867 255.83 555.175 254.172 555.791 252.676C556.407 251.151 557.273 249.846 558.387 248.76C559.531 247.646 560.866 246.78 562.391 246.164C563.946 245.548 565.647 245.24 567.495 245.24C570.605 245.24 573.025 246.076 574.755 247.748C576.486 249.42 577.351 251.767 577.351 254.788C577.351 255.258 577.278 255.551 577.131 255.668C576.985 255.756 576.574 255.8 575.899 255.8H561.731C561.614 256.064 561.555 256.548 561.555 257.252C561.555 260.127 562.171 262.4 563.403 264.072C564.665 265.744 566.366 266.58 568.507 266.58C569.739 266.58 570.957 266.302 572.159 265.744C573.391 265.187 574.579 264.395 575.723 263.368L576.955 264.908ZM568.419 253.336C569.593 253.336 570.341 253.278 570.663 253.16C571.015 253.014 571.191 252.691 571.191 252.192C571.191 250.902 570.825 249.846 570.091 249.024C569.358 248.203 568.434 247.792 567.319 247.792C566.058 247.792 564.929 248.32 563.931 249.376C562.963 250.403 562.333 251.723 562.039 253.336H568.419ZM594.07 256.46C591.606 257.575 589.743 258.616 588.482 259.584C587.25 260.523 586.634 261.506 586.634 262.532C586.634 263.383 586.868 264.058 587.338 264.556C587.807 265.055 588.394 265.304 589.098 265.304C589.802 265.304 590.462 265.187 591.078 264.952C591.694 264.688 592.222 264.351 592.662 263.94C593.102 263.53 593.439 263.046 593.674 262.488C593.938 261.902 594.07 261.286 594.07 260.64V256.46ZM594.07 254.128V252.28C594.07 250.579 593.762 249.347 593.146 248.584C592.559 247.792 591.635 247.396 590.374 247.396C589.523 247.396 588.878 247.631 588.438 248.1C587.998 248.54 587.587 249.288 587.206 250.344C586.942 251.078 586.56 251.65 586.062 252.06C585.592 252.471 584.932 252.676 584.082 252.676C583.26 252.676 582.63 252.427 582.19 251.928C581.75 251.43 581.53 250.726 581.53 249.816C581.53 248.408 582.292 247.294 583.818 246.472C585.372 245.651 587.704 245.24 590.814 245.24C594.099 245.24 596.446 245.842 597.854 247.044C599.262 248.218 599.966 250.198 599.966 252.984V262.62C599.966 265.114 600.464 266.36 601.462 266.36C602.019 266.36 602.532 266.17 603.002 265.788L603.662 267.064C603.251 267.798 602.606 268.384 601.726 268.824C600.875 269.235 599.907 269.44 598.822 269.44C597.472 269.44 596.446 269.03 595.742 268.208C595.038 267.387 594.686 266.228 594.686 264.732H594.466C593.615 266.258 592.515 267.416 591.166 268.208C589.816 269 588.276 269.396 586.546 269.396C584.698 269.396 583.216 268.883 582.102 267.856C580.987 266.8 580.43 265.436 580.43 263.764C580.43 262.474 581.002 261.271 582.146 260.156C583.29 259.012 585.196 257.898 587.866 256.812L594.07 254.128ZM615.551 262.18C615.551 263.324 615.595 264.234 615.683 264.908C615.801 265.554 616.021 266.052 616.343 266.404C616.666 266.756 617.135 266.991 617.751 267.108C618.367 267.196 619.189 267.24 620.215 267.24V269H605.519V267.24C606.399 267.182 607.103 267.094 607.631 266.976C608.159 266.859 608.555 266.624 608.819 266.272C609.083 265.92 609.245 265.422 609.303 264.776C609.391 264.102 609.435 263.207 609.435 262.092V256.724C609.435 254.906 609.391 253.454 609.303 252.368C609.215 251.283 609.025 250.447 608.731 249.86C608.438 249.274 608.013 248.892 607.455 248.716C606.927 248.511 606.223 248.408 605.343 248.408V246.868L614.143 245.24L614.847 250.3H615.023C615.815 248.746 616.857 247.514 618.147 246.604C619.438 245.695 620.802 245.24 622.239 245.24C623.354 245.24 624.263 245.519 624.967 246.076C625.671 246.634 626.023 247.338 626.023 248.188C626.023 249.127 625.745 249.919 625.187 250.564C624.659 251.21 623.926 251.532 622.987 251.532C622.547 251.532 622.151 251.444 621.799 251.268C621.447 251.092 621.125 250.902 620.831 250.696C620.567 250.462 620.289 250.256 619.995 250.08C619.731 249.875 619.453 249.772 619.159 249.772C618.602 249.772 618.074 250.139 617.575 250.872C617.077 251.606 616.666 252.588 616.343 253.82C616.109 254.7 615.918 255.698 615.771 256.812C615.625 257.898 615.551 258.983 615.551 260.068V262.18ZM637.421 261.828C637.421 263.031 637.451 263.984 637.509 264.688C637.597 265.363 637.759 265.891 637.993 266.272C638.257 266.624 638.639 266.859 639.137 266.976C639.665 267.094 640.369 267.182 641.249 267.24V269H627.389V267.24C628.24 267.182 628.915 267.094 629.413 266.976C629.941 266.859 630.337 266.624 630.601 266.272C630.895 265.92 631.085 265.422 631.173 264.776C631.261 264.131 631.305 263.251 631.305 262.136V256.636C631.305 254.906 631.276 253.512 631.217 252.456C631.159 251.371 631.085 250.638 630.997 250.256C630.909 249.875 630.792 249.567 630.645 249.332C630.499 249.068 630.279 248.878 629.985 248.76C629.692 248.614 629.325 248.526 628.885 248.496C628.445 248.438 627.888 248.408 627.213 248.408V246.912L635.705 245.24L636.277 249.112H636.453C637.421 247.88 638.565 246.927 639.885 246.252C641.205 245.578 642.657 245.24 644.241 245.24C646.119 245.24 647.629 245.504 648.773 246.032C649.947 246.531 650.988 247.382 651.897 248.584C652.396 249.259 652.836 250.139 653.217 251.224C653.599 252.28 653.789 253.747 653.789 255.624V261.828C653.789 263.031 653.819 263.984 653.877 264.688C653.965 265.363 654.127 265.891 654.361 266.272C654.625 266.624 655.007 266.859 655.505 266.976C656.004 267.094 656.679 267.182 657.529 267.24V269H643.757V267.24C644.637 267.211 645.327 267.138 645.825 267.02C646.353 266.874 646.749 266.624 647.013 266.272C647.277 265.92 647.453 265.422 647.541 264.776C647.629 264.102 647.673 263.222 647.673 262.136V256.152C647.673 254.656 647.585 253.395 647.409 252.368C647.233 251.342 646.94 250.52 646.529 249.904C646.148 249.259 645.635 248.804 644.989 248.54C644.344 248.247 643.537 248.1 642.569 248.1C641.631 248.1 640.824 248.364 640.149 248.892C639.475 249.42 638.888 250.154 638.389 251.092C638.125 251.62 637.891 252.31 637.685 253.16C637.509 253.982 637.421 254.847 637.421 255.756V261.828ZM669.39 261.784C669.39 262.958 669.434 263.896 669.522 264.6C669.61 265.304 669.786 265.847 670.05 266.228C670.314 266.61 670.695 266.874 671.194 267.02C671.693 267.138 672.367 267.211 673.218 267.24V269H659.358V267.24C660.179 267.211 660.839 267.123 661.338 266.976C661.866 266.8 662.262 266.536 662.526 266.184C662.819 265.803 663.01 265.29 663.098 264.644C663.215 263.97 663.274 263.119 663.274 262.092V256.68C663.274 254.979 663.245 253.586 663.186 252.5C663.127 251.386 663.054 250.623 662.966 250.212C662.819 249.479 662.482 248.995 661.954 248.76C661.455 248.526 660.531 248.408 659.182 248.408V246.912L669.39 245.24V261.784ZM662.922 235.912C662.922 234.944 663.245 234.138 663.89 233.492C664.565 232.818 665.371 232.48 666.31 232.48C667.278 232.48 668.085 232.818 668.73 233.492C669.405 234.138 669.742 234.944 669.742 235.912C669.742 236.851 669.405 237.658 668.73 238.332C668.085 238.978 667.278 239.3 666.31 239.3C665.371 239.3 664.565 238.978 663.89 238.332C663.245 237.658 662.922 236.851 662.922 235.912ZM685.288 261.828C685.288 263.031 685.318 263.984 685.376 264.688C685.464 265.363 685.626 265.891 685.86 266.272C686.124 266.624 686.506 266.859 687.004 266.976C687.532 267.094 688.236 267.182 689.116 267.24V269H675.256V267.24C676.107 267.182 676.782 267.094 677.28 266.976C677.808 266.859 678.204 266.624 678.468 266.272C678.762 265.92 678.952 265.422 679.04 264.776C679.128 264.131 679.172 263.251 679.172 262.136V256.636C679.172 254.906 679.143 253.512 679.084 252.456C679.026 251.371 678.952 250.638 678.864 250.256C678.776 249.875 678.659 249.567 678.512 249.332C678.366 249.068 678.146 248.878 677.852 248.76C677.559 248.614 677.192 248.526 676.752 248.496C676.312 248.438 675.755 248.408 675.08 248.408V246.912L683.572 245.24L684.144 249.112H684.32C685.288 247.88 686.432 246.927 687.752 246.252C689.072 245.578 690.524 245.24 692.108 245.24C693.986 245.24 695.496 245.504 696.64 246.032C697.814 246.531 698.855 247.382 699.764 248.584C700.263 249.259 700.703 250.139 701.084 251.224C701.466 252.28 701.656 253.747 701.656 255.624V261.828C701.656 263.031 701.686 263.984 701.744 264.688C701.832 265.363 701.994 265.891 702.228 266.272C702.492 266.624 702.874 266.859 703.372 266.976C703.871 267.094 704.546 267.182 705.396 267.24V269H691.624V267.24C692.504 267.211 693.194 267.138 693.692 267.02C694.22 266.874 694.616 266.624 694.88 266.272C695.144 265.92 695.32 265.422 695.408 264.776C695.496 264.102 695.54 263.222 695.54 262.136V256.152C695.54 254.656 695.452 253.395 695.276 252.368C695.1 251.342 694.807 250.52 694.396 249.904C694.015 249.259 693.502 248.804 692.856 248.54C692.211 248.247 691.404 248.1 690.436 248.1C689.498 248.1 688.691 248.364 688.016 248.892C687.342 249.42 686.755 250.154 686.256 251.092C685.992 251.62 685.758 252.31 685.552 253.16C685.376 253.982 685.288 254.847 685.288 255.756V261.828ZM715.981 264.248C716.773 264.307 717.463 264.366 718.049 264.424C718.665 264.483 719.237 264.556 719.765 264.644C720.323 264.703 720.865 264.776 721.393 264.864C721.951 264.923 722.537 264.996 723.153 265.084C725.441 265.407 727.231 266.272 728.521 267.68C729.841 269.059 730.501 270.775 730.501 272.828C730.501 275.322 729.475 277.214 727.421 278.504C725.368 279.795 722.347 280.44 718.357 280.44C714.691 280.44 711.86 279.898 709.865 278.812C707.9 277.756 706.917 276.246 706.917 274.28C706.917 272.755 707.313 271.596 708.105 270.804C708.897 270.042 709.895 269.66 711.097 269.66C711.86 269.66 712.593 269.807 713.297 270.1C714.031 270.423 714.647 270.878 715.145 271.464C714.383 271.611 713.752 271.948 713.253 272.476C712.784 273.034 712.549 273.679 712.549 274.412C712.549 275.586 713.063 276.48 714.089 277.096C715.145 277.742 716.685 278.064 718.709 278.064C723.109 278.064 725.309 276.671 725.309 273.884C725.309 272.887 724.972 272.022 724.297 271.288C723.652 270.584 722.713 270.159 721.481 270.012L713.781 268.956C710.525 268.516 708.897 267.064 708.897 264.6C708.897 263.398 709.279 262.415 710.041 261.652C710.833 260.89 711.948 260.362 713.385 260.068V259.892C712.711 259.628 712.095 259.262 711.537 258.792C711.009 258.323 710.54 257.78 710.129 257.164C709.719 256.548 709.396 255.888 709.161 255.184C708.956 254.451 708.853 253.703 708.853 252.94C708.853 251.855 709.073 250.843 709.513 249.904C709.983 248.936 710.613 248.115 711.405 247.44C712.227 246.766 713.18 246.238 714.265 245.856C715.38 245.446 716.583 245.24 717.873 245.24C719.135 245.24 720.367 245.431 721.569 245.812C722.772 246.194 723.799 246.722 724.649 247.396C725.324 246.986 725.911 246.648 726.409 246.384C726.908 246.091 727.363 245.871 727.773 245.724C728.213 245.548 728.609 245.431 728.961 245.372C729.313 245.284 729.665 245.24 730.017 245.24C731.132 245.24 732.027 245.49 732.701 245.988C733.405 246.487 733.757 247.147 733.757 247.968C733.757 248.584 733.567 249.098 733.185 249.508C732.804 249.89 732.305 250.08 731.689 250.08C731.249 250.08 730.897 249.992 730.633 249.816C730.369 249.611 730.105 249.391 729.841 249.156C729.607 248.892 729.357 248.672 729.093 248.496C728.829 248.291 728.477 248.188 728.037 248.188C727.421 248.188 726.835 248.584 726.277 249.376C726.571 249.875 726.776 250.418 726.893 251.004C727.011 251.562 727.069 252.222 727.069 252.984C727.069 254.099 726.893 255.126 726.541 256.064C726.189 257.003 725.632 257.839 724.869 258.572C724.136 259.276 723.183 259.878 722.009 260.376C720.836 260.875 719.413 261.212 717.741 261.388C716.333 261.535 715.351 261.726 714.793 261.96C714.265 262.195 714.001 262.547 714.001 263.016C714.001 263.72 714.661 264.131 715.981 264.248ZM718.093 258.88C719.032 258.88 719.765 258.382 720.293 257.384C720.821 256.387 721.085 254.994 721.085 253.204C721.085 251.386 720.821 249.992 720.293 249.024C719.765 248.027 719.017 247.528 718.049 247.528C717.052 247.528 716.26 248.027 715.673 249.024C715.087 250.022 714.793 251.386 714.793 253.116C714.793 254.876 715.087 256.284 715.673 257.34C716.289 258.367 717.096 258.88 718.093 258.88ZM775.128 235.12H777.284L776.404 246.252H774.644C774.028 243.554 772.825 241.427 771.036 239.872C769.276 238.318 767.134 237.54 764.612 237.54C762.881 237.54 761.341 237.892 759.992 238.596C758.642 239.271 757.498 240.254 756.56 241.544C755.65 242.806 754.946 244.36 754.448 246.208C753.978 248.027 753.744 250.08 753.744 252.368C753.744 256.915 754.668 260.42 756.516 262.884C758.393 265.319 761.15 266.536 764.788 266.536C767.721 266.536 770.141 265.744 772.048 264.16C773.984 262.576 775.362 260.215 776.184 257.076H778.12V269H776.052L775.436 265.524C772.209 268.135 768.293 269.44 763.688 269.44C761.018 269.44 758.598 269.044 756.428 268.252C754.257 267.46 752.409 266.346 750.884 264.908C749.358 263.442 748.17 261.667 747.32 259.584C746.498 257.502 746.088 255.184 746.088 252.632C746.088 249.963 746.528 247.528 747.408 245.328C748.288 243.128 749.52 241.236 751.104 239.652C752.717 238.068 754.624 236.851 756.824 236C759.053 235.12 761.517 234.68 764.216 234.68C766.005 234.68 767.677 234.93 769.232 235.428C770.786 235.927 772.473 236.734 774.292 237.848L775.128 235.12ZM804.002 264.908C801.333 267.93 798.004 269.44 794.014 269.44C792.196 269.44 790.538 269.162 789.042 268.604C787.576 268.018 786.314 267.211 785.258 266.184C784.202 265.128 783.381 263.882 782.794 262.444C782.208 261.007 781.914 259.408 781.914 257.648C781.914 255.83 782.222 254.172 782.838 252.676C783.454 251.151 784.32 249.846 785.434 248.76C786.578 247.646 787.913 246.78 789.438 246.164C790.993 245.548 792.694 245.24 794.542 245.24C797.652 245.24 800.072 246.076 801.802 247.748C803.533 249.42 804.398 251.767 804.398 254.788C804.398 255.258 804.325 255.551 804.178 255.668C804.032 255.756 803.621 255.8 802.946 255.8H788.778C788.661 256.064 788.602 256.548 788.602 257.252C788.602 260.127 789.218 262.4 790.45 264.072C791.712 265.744 793.413 266.58 795.554 266.58C796.786 266.58 798.004 266.302 799.206 265.744C800.438 265.187 801.626 264.395 802.77 263.368L804.002 264.908ZM795.466 253.336C796.64 253.336 797.388 253.278 797.71 253.16C798.062 253.014 798.238 252.691 798.238 252.192C798.238 250.902 797.872 249.846 797.138 249.024C796.405 248.203 795.481 247.792 794.366 247.792C793.105 247.792 791.976 248.32 790.978 249.376C790.01 250.403 789.38 251.723 789.086 253.336H795.466ZM817.288 261.828C817.288 263.031 817.318 263.984 817.376 264.688C817.464 265.363 817.626 265.891 817.86 266.272C818.124 266.624 818.506 266.859 819.004 266.976C819.532 267.094 820.236 267.182 821.116 267.24V269H807.256V267.24C808.107 267.182 808.782 267.094 809.28 266.976C809.808 266.859 810.204 266.624 810.468 266.272C810.762 265.92 810.952 265.422 811.04 264.776C811.128 264.131 811.172 263.251 811.172 262.136V256.636C811.172 254.906 811.143 253.512 811.084 252.456C811.026 251.371 810.952 250.638 810.864 250.256C810.776 249.875 810.659 249.567 810.512 249.332C810.366 249.068 810.146 248.878 809.852 248.76C809.559 248.614 809.192 248.526 808.752 248.496C808.312 248.438 807.755 248.408 807.08 248.408V246.912L815.572 245.24L816.144 249.112H816.32C817.288 247.88 818.432 246.927 819.752 246.252C821.072 245.578 822.524 245.24 824.108 245.24C825.986 245.24 827.496 245.504 828.64 246.032C829.814 246.531 830.855 247.382 831.764 248.584C832.263 249.259 832.703 250.139 833.084 251.224C833.466 252.28 833.656 253.747 833.656 255.624V261.828C833.656 263.031 833.686 263.984 833.744 264.688C833.832 265.363 833.994 265.891 834.228 266.272C834.492 266.624 834.874 266.859 835.372 266.976C835.871 267.094 836.546 267.182 837.396 267.24V269H823.624V267.24C824.504 267.211 825.194 267.138 825.692 267.02C826.22 266.874 826.616 266.624 826.88 266.272C827.144 265.92 827.32 265.422 827.408 264.776C827.496 264.102 827.54 263.222 827.54 262.136V256.152C827.54 254.656 827.452 253.395 827.276 252.368C827.1 251.342 826.807 250.52 826.396 249.904C826.015 249.259 825.502 248.804 824.856 248.54C824.211 248.247 823.404 248.1 822.436 248.1C821.498 248.1 820.691 248.364 820.016 248.892C819.342 249.42 818.755 250.154 818.256 251.092C817.992 251.62 817.758 252.31 817.552 253.16C817.376 253.982 817.288 254.847 817.288 255.756V261.828ZM839.049 248.1V246.12C840.809 245.622 842.276 244.874 843.449 243.876C844.652 242.85 845.547 241.676 846.133 240.356H848.377V245.68H853.437V248.1H848.377V261.608C848.377 263.427 848.568 264.718 848.949 265.48C849.36 266.243 850.035 266.624 850.973 266.624C852.117 266.624 852.983 266.096 853.569 265.04L854.493 266.316C853.672 268.399 851.736 269.44 848.685 269.44C846.661 269.44 845.077 268.971 843.933 268.032C842.819 267.094 842.261 265.774 842.261 264.072V248.1H839.049ZM866.102 262.18C866.102 263.324 866.146 264.234 866.234 264.908C866.351 265.554 866.571 266.052 866.894 266.404C867.217 266.756 867.686 266.991 868.302 267.108C868.918 267.196 869.739 267.24 870.766 267.24V269H856.07V267.24C856.95 267.182 857.654 267.094 858.182 266.976C858.71 266.859 859.106 266.624 859.37 266.272C859.634 265.92 859.795 265.422 859.854 264.776C859.942 264.102 859.986 263.207 859.986 262.092V256.724C859.986 254.906 859.942 253.454 859.854 252.368C859.766 251.283 859.575 250.447 859.282 249.86C858.989 249.274 858.563 248.892 858.006 248.716C857.478 248.511 856.774 248.408 855.894 248.408V246.868L864.694 245.24L865.398 250.3H865.574C866.366 248.746 867.407 247.514 868.698 246.604C869.989 245.695 871.353 245.24 872.79 245.24C873.905 245.24 874.814 245.519 875.518 246.076C876.222 246.634 876.574 247.338 876.574 248.188C876.574 249.127 876.295 249.919 875.738 250.564C875.21 251.21 874.477 251.532 873.538 251.532C873.098 251.532 872.702 251.444 872.35 251.268C871.998 251.092 871.675 250.902 871.382 250.696C871.118 250.462 870.839 250.256 870.546 250.08C870.282 249.875 870.003 249.772 869.71 249.772C869.153 249.772 868.625 250.139 868.126 250.872C867.627 251.606 867.217 252.588 866.894 253.82C866.659 254.7 866.469 255.698 866.322 256.812C866.175 257.898 866.102 258.983 866.102 260.068V262.18ZM900.166 264.908C897.497 267.93 894.168 269.44 890.178 269.44C888.36 269.44 886.702 269.162 885.206 268.604C883.74 268.018 882.478 267.211 881.422 266.184C880.366 265.128 879.545 263.882 878.958 262.444C878.372 261.007 878.078 259.408 878.078 257.648C878.078 255.83 878.386 254.172 879.002 252.676C879.618 251.151 880.484 249.846 881.598 248.76C882.742 247.646 884.077 246.78 885.602 246.164C887.157 245.548 888.858 245.24 890.706 245.24C893.816 245.24 896.236 246.076 897.966 247.748C899.697 249.42 900.562 251.767 900.562 254.788C900.562 255.258 900.489 255.551 900.342 255.668C900.196 255.756 899.785 255.8 899.11 255.8H884.942C884.825 256.064 884.766 256.548 884.766 257.252C884.766 260.127 885.382 262.4 886.614 264.072C887.876 265.744 889.577 266.58 891.718 266.58C892.95 266.58 894.168 266.302 895.37 265.744C896.602 265.187 897.79 264.395 898.934 263.368L900.166 264.908ZM891.63 253.336C892.804 253.336 893.552 253.278 893.874 253.16C894.226 253.014 894.402 252.691 894.402 252.192C894.402 250.902 894.036 249.846 893.302 249.024C892.569 248.203 891.645 247.792 890.53 247.792C889.269 247.792 888.14 248.32 887.142 249.376C886.174 250.403 885.544 251.723 885.25 253.336H891.63ZM905.885 269H904.521V260.992H906.369C906.867 263.104 907.586 264.644 908.525 265.612C909.463 266.58 910.681 267.064 912.177 267.064C913.262 267.064 914.098 266.844 914.685 266.404C915.301 265.935 915.609 265.304 915.609 264.512C915.609 263.691 915.242 262.899 914.509 262.136C913.775 261.344 912.587 260.508 910.945 259.628C908.715 258.426 907.117 257.238 906.149 256.064C905.181 254.862 904.697 253.512 904.697 252.016C904.697 251.048 904.873 250.154 905.225 249.332C905.606 248.482 906.105 247.748 906.721 247.132C907.366 246.516 908.129 246.047 909.009 245.724C909.889 245.372 910.842 245.196 911.869 245.196C912.778 245.196 913.673 245.328 914.553 245.592C915.462 245.856 916.254 246.223 916.929 246.692L917.721 245.636H918.865V252.28H917.149C916.474 250.608 915.77 249.406 915.037 248.672C914.333 247.939 913.467 247.572 912.441 247.572C911.619 247.572 910.959 247.792 910.461 248.232C909.991 248.672 909.757 249.259 909.757 249.992C909.757 250.814 910.109 251.591 910.813 252.324C911.546 253.058 912.749 253.864 914.421 254.744C915.594 255.39 916.606 256.02 917.457 256.636C918.307 257.252 918.997 257.883 919.525 258.528C920.053 259.144 920.434 259.804 920.669 260.508C920.933 261.183 921.065 261.916 921.065 262.708C921.065 263.735 920.874 264.659 920.493 265.48C920.111 266.302 919.569 267.006 918.865 267.592C918.161 268.179 917.31 268.634 916.313 268.956C915.345 269.279 914.259 269.44 913.057 269.44C911.795 269.44 910.622 269.279 909.537 268.956C908.451 268.604 907.557 268.106 906.853 267.46L905.885 269Z" fill="white"/>
</svg>
